<?xml version="1.0" encoding="UTF-8" standalone="no"?>
<!-- Created with Inkscape (http://www.inkscape.org/) -->

<svg
   xmlns:dc="http://purl.org/dc/elements/1.1/"
   xmlns:cc="http://creativecommons.org/ns#"
   xmlns:rdf="http://www.w3.org/1999/02/22-rdf-syntax-ns#"
   xmlns:svg="http://www.w3.org/2000/svg"
   xmlns="http://www.w3.org/2000/svg"
   xmlns:sodipodi="http://sodipodi.sourceforge.net/DTD/sodipodi-0.dtd"
   xmlns:inkscape="http://www.inkscape.org/namespaces/inkscape"
   width="46.619305mm"
   height="32.563538mm"
   viewBox="0 0 46.619305 32.563538"
   version="1.1"
   id="svg8"
   inkscape:version="0.92.3 (2405546, 2018-03-11)"
   sodipodi:docname="94.svg">
  <sodipodi:namedview
     id="base"
     pagecolor="#ffffff"
     bordercolor="#666666"
     borderopacity="1.0"
     inkscape:pageopacity="0.0"
     inkscape:pageshadow="2"
     inkscape:zoom="0.97834852"
     inkscape:cx="-183.00286"
     inkscape:cy="51.65363"
     inkscape:document-units="mm"
     inkscape:current-layer="layer1"
     showgrid="false"
     inkscape:window-width="1366"
     inkscape:window-height="712"
     inkscape:window-x="0"
     inkscape:window-y="0"
     inkscape:window-maximized="1"
     inkscape:snap-perpendicular="true"
     inkscape:snap-tangential="true"
     inkscape:snap-global="true"
     inkscape:snap-center="false"
     inkscape:snap-object-midpoints="true"
     inkscape:snap-intersection-paths="true"
     inkscape:snap-smooth-nodes="true" />
  <defs
     id="defs2"><marker
   inkscape:stockid="Arrow1Mend"
   orient="auto"
   refY="0"
   refX="0"
   id="Arrow1Mend"
   style="overflow:visible"
   inkscape:isstock="true">
  <path
     id="path1132"
     d="M 0,0 5,-5 -12.5,0 5,5 Z"
     style="fill:#000000;fill-opacity:1;fill-rule:evenodd;stroke:#000000;stroke-width:1.00000003pt;stroke-opacity:1"
     transform="matrix(-0.4,0,0,-0.4,-4,0)"
     inkscape:connector-curvature="0" />
</marker>





<marker
   inkscape:stockid="Arrow1Mend"
   orient="auto"
   refY="0"
   refX="0"
   id="Arrow1Mend-3"
   style="overflow:visible"
   inkscape:isstock="true">
  <path
     id="path1132-6"
     d="M 0,0 5,-5 -12.5,0 5,5 Z"
     style="fill:#000000;fill-opacity:1;fill-rule:evenodd;stroke:#000000;stroke-width:1.00000003pt;stroke-opacity:1"
     transform="matrix(-0.4,0,0,-0.4,-4,0)"
     inkscape:connector-curvature="0" />
</marker>
</defs>
  <metadata
     id="metadata5">
    <rdf:RDF>
      <cc:Work
         rdf:about="">
        <dc:format>image/svg+xml</dc:format>
        <dc:type
           rdf:resource="http://purl.org/dc/dcmitype/StillImage" />
        <dc:title></dc:title>
      </cc:Work>
    </rdf:RDF>
  </metadata>
  <g
     id="layer1"
     inkscape:groupmode="layer"
     inkscape:label="Capa 1"
     transform="translate(-94.341207,-39.633416)">
    <path
       inkscape:connector-curvature="0"
       style="opacity:1;fill:none;fill-opacity:1;stroke:#000000;stroke-width:0.35277778;stroke-miterlimit:4;stroke-dasharray:none;stroke-opacity:1"
       d="m 112.9757,39.752789 c -1.50501,1.637199 -2.507,3.274395 -3.00901,4.911595 -0.50199,1.637197 -0.501,3.274395 0,4.911592 0.501,1.637198 1.50501,3.274396 3.00901,4.911594 1.504,1.637202 3.51101,3.274399 6.01801,4.911593 2.50699,1.637202 5.517,3.274395 9.027,4.911597"
       title="x*x"
       id="path1029"
       sodipodi:nodetypes="ccsccc" />
    <path
       inkscape:connector-curvature="0"
       id="path1045"
       d="M 140.96051,47.120177 H 94.341207"
       style="fill:none;stroke:#000000;stroke-width:0.35277778;stroke-linecap:butt;stroke-linejoin:miter;stroke-miterlimit:4;stroke-dasharray:none;stroke-opacity:1" />
    <path
       inkscape:connector-curvature="0"
       id="path1049"
       d="M 99.122104,47.120177 120.06,60.076754"
       style="fill:none;stroke:#000000;stroke-width:0.35277778;stroke-linecap:butt;stroke-linejoin:miter;stroke-miterlimit:4;stroke-dasharray:none;stroke-opacity:1"
       sodipodi:nodetypes="cc" />
    <path
       inkscape:connector-curvature="0"
       id="path1051"
       d="m 112.61733,72.104137 15.46033,-24.98396"
       style="fill:none;stroke:#000000;stroke-width:0.35277778;stroke-linecap:butt;stroke-linejoin:miter;stroke-miterlimit:4;stroke-dasharray:none;stroke-opacity:1"
       sodipodi:nodetypes="cc" />
    <path
       style="font-style:normal;font-variant:normal;font-weight:normal;font-stretch:normal;letter-spacing:normal;word-spacing:normal;text-anchor:start;fill:#000000;fill-opacity:1;fill-rule:evenodd;stroke:#000000;stroke-width:0;stroke-linecap:butt;stroke-linejoin:miter;stroke-miterlimit:10.43299961;stroke-dasharray:none;stroke-dashoffset:0;stroke-opacity:1"
       inkscape:connector-curvature="0"
       d="m 129.47468,45.781693 h -0.0247 -0.0212 l -0.0176,-0.0035 -0.0212,-0.0035 -0.0176,-0.0035 -0.0212,-0.0035 -0.0141,-0.0071 -0.0176,-0.0071 -0.0176,-0.0071 -0.0141,-0.0071 -0.0141,-0.0071 -0.0141,-0.01058 -0.0141,-0.0071 -0.0141,-0.01058 -0.0106,-0.01058 -0.0106,-0.01058 -0.0141,-0.01411 -0.0106,-0.01058 -0.0106,-0.01411 -0.007,-0.01411 -0.0106,-0.01058 -0.0106,-0.01411 -0.007,-0.01411 -0.0106,-0.01411 -0.007,-0.01764 -0.007,-0.01411 -0.0141,-0.03175 -0.0141,-0.02822 -0.0141,-0.03528 -0.40922,-0.980722 c 0.59972,-0.102306 0.80433,-0.455084 0.80433,-0.825501 0,-0.264583 -0.20814,-0.627945 -0.93133,-0.627945 h -1.00895 l -0.0141,0.07056 c 0.14111,0 0.3175,0.01058 0.3175,0.204611 0,0.05644 -0.0106,0.127 -0.0529,0.282222 l -0.49741,1.792113 c -0.11995,0.423333 -0.27517,0.416278 -0.43745,0.416278 l -0.0106,0.07408 h 1.143 l 0.0106,-0.07408 c -0.10936,0 -0.32102,-0.01411 -0.32102,-0.218723 0,-0.0388 0.007,-0.08819 0.0247,-0.144639 l 0.24694,-0.910167 h 0.30339 l -0.0106,-0.137583 h -0.254 l 0.34572,-1.234723 h 0.13759 c 0.41275,0 0.60325,0.172861 0.60325,0.508 v 0 c 0,0.511528 -0.39159,0.726723 -0.83256,0.726723 l 0.0106,0.137583 0.57856,1.347612 h 0.64558 z"
       id="path1061" />
    <path
       style="font-style:normal;font-variant:normal;font-weight:normal;font-stretch:normal;letter-spacing:normal;word-spacing:normal;text-anchor:start;fill:#000000;fill-opacity:1;fill-rule:evenodd;stroke:#000000;stroke-width:0;stroke-linecap:butt;stroke-linejoin:miter;stroke-miterlimit:10.43299961;stroke-dasharray:none;stroke-dashoffset:0;stroke-opacity:1"
       inkscape:connector-curvature="0"
       d="m 121.56557,43.239367 v -0.06703 l -0.004,-0.0635 -0.007,-0.0635 -0.007,-0.05644 -0.0106,-0.05997 -0.0106,-0.05292 -0.0141,-0.05292 -0.0176,-0.05292 -0.0176,-0.04586 -0.0176,-0.04939 -0.0212,-0.04233 -0.0247,-0.04233 -0.0247,-0.03881 -0.0282,-0.0388 -0.0318,-0.03528 -0.0282,-0.03528 -0.0353,-0.03175 -0.0317,-0.02822 -0.0388,-0.02822 -0.0353,-0.0247 -0.0423,-0.02469 -0.0388,-0.01764 -0.0423,-0.02117 -0.0459,-0.01764 -0.0423,-0.01411 -0.0494,-0.01411 -0.0459,-0.01058 -0.0494,-0.0071 -0.0529,-0.0071 -0.0529,-0.0071 -0.0529,-0.0035 h -0.0529 c -0.86078,0 -1.7533,1.016001 -1.7533,1.919113 0,0.645583 0.39511,0.970139 0.8255,1.037167 l -0.75848,0.659695 0.0494,0.05997 c 0,0 0.13053,-0.07408 0.36689,-0.07408 0.51506,0 0.62795,0.197555 1.06539,0.197555 0.3175,0 0.81139,-0.232833 1.02306,-0.596195 l -0.0494,-0.01764 c -0.0635,0.08467 -0.28928,0.331611 -0.71967,0.331611 -0.44097,0 -0.64206,-0.165806 -1.00542,-0.165806 -0.0776,0 -0.1658,0.0071 -0.27516,0.02822 l 0.49741,-0.41275 -0.0282,-0.137583 c -0.37394,0 -0.5468,-0.338667 -0.5468,-0.762001 0,-0.786695 0.5468,-1.912056 1.26294,-1.912056 0.40217,0 0.57503,0.324555 0.57503,0.747889 v 0 c 0,0.79375 -0.58561,1.926168 -1.29117,1.926168 l 0.0282,0.137583 c 0.82198,0 1.70745,-1.026584 1.70745,-1.912057 z"
       id="path1063" />
    <path
       style="font-style:normal;font-variant:normal;font-weight:normal;font-stretch:normal;letter-spacing:normal;word-spacing:normal;text-anchor:start;fill:#000000;fill-opacity:1;fill-rule:evenodd;stroke:#000000;stroke-width:0;stroke-linecap:butt;stroke-linejoin:miter;stroke-miterlimit:10.43299961;stroke-dasharray:none;stroke-dashoffset:0;stroke-opacity:1"
       inkscape:connector-curvature="0"
       d="m 111.03683,67.594448 h -0.0882 c -0.0318,0.05292 -0.0706,0.116417 -0.17639,0.116417 -0.0917,0 -0.36689,-0.116417 -0.65617,-0.116417 -0.92428,0 -1.78858,0.892529 -1.78858,1.802696 0,0.73025 0.54327,1.157112 1.15005,1.157112 0.52917,0 0.99836,-0.324556 1.21356,-0.694973 l -0.11642,-0.0071 c -0.20461,0.254 -0.52211,0.518583 -0.9525,0.518583 -0.46567,0 -0.77258,-0.324556 -0.77258,-0.931334 0,-0.737306 0.49741,-1.703917 1.30175,-1.703917 0.4445,0 0.62089,0.292805 0.62089,0.744361 h 0.0776 z"
       id="path1065" />
    <path
       style="font-style:normal;font-variant:normal;font-weight:normal;font-stretch:normal;letter-spacing:normal;word-spacing:normal;text-anchor:start;fill:#000000;fill-opacity:1;fill-rule:evenodd;stroke:#000000;stroke-width:0;stroke-linecap:butt;stroke-linejoin:miter;stroke-miterlimit:10.43299961;stroke-dasharray:none;stroke-dashoffset:0;stroke-opacity:1"
       inkscape:connector-curvature="0"
       d="m 112.43736,70.194422 v -0.04586 l -0.004,-0.04939 -0.004,-0.04586 -0.004,-0.04586 -0.007,-0.04233 -0.007,-0.04586 -0.007,-0.04233 -0.0106,-0.04586 -0.0106,-0.04233 -0.0141,-0.03881 -0.0141,-0.04233 -0.0141,-0.03881 -0.0176,-0.03528 -0.0176,-0.0388 -0.0176,-0.03528 -0.0212,-0.03175 -0.0212,-0.03528 -0.0247,-0.02822 -0.0247,-0.03175 -0.0247,-0.0247 -0.0282,-0.02822 -0.0282,-0.02469 -0.0282,-0.02117 -0.0317,-0.02117 -0.0318,-0.01764 -0.0317,-0.01411 -0.0353,-0.01411 -0.0353,-0.01058 -0.0388,-0.01058 -0.0388,-0.0071 -0.0388,-0.0035 h -0.0388 v 0.109361 c 0.29986,0 0.32456,0.525639 0.32456,0.850195 v 0 c 0,0.391584 -0.0988,0.853723 -0.33161,0.853723 -0.28576,0 -0.32103,-0.462139 -0.32103,-0.853723 0,-0.324556 0.0176,-0.850195 0.32808,-0.850195 v -0.109361 c -0.44803,0 -0.68086,0.458611 -0.68086,0.959556 0,0.511528 0.22578,0.963084 0.68086,0.963084 0.42333,0 0.67028,-0.451556 0.67028,-0.963084 z"
       id="path1067" />
    <g
       id="g1117"
       transform="translate(-35.722043,3.8718169)">
      <polygon
         transform="matrix(0.352778,0,0,-0.352778,99.983123,266.2407)"
         id="polygon1069"
         points="153.04,623.38 153.04,623.29 153.65,622.32 149.96,622.32 149.96,621.73 153.65,621.73 153.04,620.76 153.04,620.66 154.58,621.98 154.58,622.07 "
         style="font-style:normal;font-variant:normal;font-weight:normal;font-stretch:normal;letter-spacing:normal;word-spacing:normal;text-anchor:start;fill:#000000;fill-opacity:1;fill-rule:evenodd;stroke:#000000;stroke-width:0;stroke-linecap:butt;stroke-linejoin:miter;stroke-miterlimit:10.43299961;stroke-dasharray:none;stroke-dashoffset:0;stroke-opacity:1" />
      <path
         id="path1071"
         d="m 154.36385,48.188618 v -0.0388 l -0.004,-0.04233 v -0.0388 l -0.004,-0.01764 v -0.02117 l -0.004,-0.01764 -0.004,-0.01764 v -0.02117 l -0.004,-0.01764 -0.007,-0.01764 -0.004,-0.01764 -0.004,-0.01411 -0.007,-0.01764 -0.004,-0.01411 -0.007,-0.01764 -0.007,-0.01411 -0.007,-0.01058 -0.0106,-0.01411 -0.007,-0.01058 -0.0106,-0.01058 -0.0106,-0.01058 -0.0106,-0.01058 -0.0141,-0.0071 -0.0106,-0.0071 -0.0141,-0.0035 -0.007,-0.0035 -0.007,-0.0035 h -0.007 -0.0106 l -0.007,-0.0035 h -0.007 -0.0106 -0.007 c -0.0847,0 -0.18345,0.05292 -0.18345,0.169333 0,0.183445 0.23989,0.09525 0.23989,0.469195 0,0.472722 -0.35983,1.213556 -0.72319,1.213556 -0.17286,0 -0.23636,-0.183444 -0.23636,-0.381 0,-0.208139 0.19755,-0.850195 0.19755,-1.068917 0,-0.264584 -0.17286,-0.402167 -0.34925,-0.402167 -0.23989,0 -0.3563,0.218722 -0.3563,0.370417 0,0.03528 0.0106,0.07408 0.0317,0.109361 h 0.0459 c 0,-0.01058 0,-0.01764 0,-0.03528 0,-0.07408 0.0282,-0.250472 0.18697,-0.250472 0.0705,0 0.11994,0.05292 0.11994,0.211666 0,0.151695 -0.19755,0.793751 -0.19755,1.072446 0,0.3175 0.28575,0.493889 0.55033,0.493889 0.51858,0 0.889,-0.959556 0.889,-1.531057 z"
         inkscape:connector-curvature="0"
         style="font-style:normal;font-variant:normal;font-weight:normal;font-stretch:normal;letter-spacing:normal;word-spacing:normal;text-anchor:start;fill:#000000;fill-opacity:1;fill-rule:evenodd;stroke:#000000;stroke-width:0;stroke-linecap:butt;stroke-linejoin:miter;stroke-miterlimit:10.43299961;stroke-dasharray:none;stroke-dashoffset:0;stroke-opacity:1" />
    </g>
    <path
       style="font-style:normal;font-variant:normal;font-weight:normal;font-stretch:normal;letter-spacing:normal;word-spacing:normal;text-anchor:start;fill:#000000;fill-opacity:1;fill-rule:evenodd;stroke:#000000;stroke-width:0;stroke-linecap:butt;stroke-linejoin:miter;stroke-miterlimit:10.43299961;stroke-dasharray:none;stroke-dashoffset:0;stroke-opacity:1"
       inkscape:connector-curvature="0"
       d="m 109.64716,43.157564 v -0.07056 h -0.80433 v 0.07056 c 0.0882,0 0.23636,0.03881 0.23636,0.148166 0,0.105834 -0.10936,0.278695 -0.15875,0.359834 l -1.12536,1.654529 -0.0811,-1.841501 c -0.0106,-0.264584 0.13052,-0.321028 0.36336,-0.321028 v -0.07056 h -1.09009 v 0.07056 c 0.28928,0 0.30692,0.127 0.34573,0.469194 l 0.0952,2.360085 h 0.0705 l 1.70392,-2.490613 c 0.0811,-0.105833 0.26458,-0.338666 0.4445,-0.338666 z"
       id="path1073" />
    <path
       style="font-style:normal;font-variant:normal;font-weight:normal;font-stretch:normal;letter-spacing:normal;word-spacing:normal;text-anchor:start;fill:#000000;fill-opacity:1;fill-rule:evenodd;stroke:#000000;stroke-width:0;stroke-linecap:butt;stroke-linejoin:miter;stroke-miterlimit:10.43299961;stroke-dasharray:none;stroke-dashoffset:0;stroke-opacity:1"
       inkscape:connector-curvature="0"
       d="m 99.643354,48.707678 v -0.07056 h -0.804337 v 0.07056 c 0.18345,0 0.26106,0.05997 0.26106,0.176389 0,0.08819 -0.067,0.215194 -0.10583,0.268111 l -0.980729,1.622779 -0.0282,-1.749779 c -0.0106,-0.250472 0.0952,-0.3175 0.33514,-0.3175 v -0.07056 h -1.09714 v 0.07056 c 0.30339,0 0.33161,0.07761 0.34925,0.306917 l 0.0212,0.22225 -0.93134,1.538112 -0.0317,-1.714501 c -0.007,-0.292806 0.11995,-0.352778 0.33867,-0.352778 v -0.07056 h -1.04069 v 0.07056 c 0.19402,0 0.31044,0.07055 0.31397,0.483306 l 0.0564,2.342445 h 0.0811 l 1.22061,-2.014362 0.0388,2.014362 h 0.0741 l 1.460499,-2.395362 c 0.211667,-0.338667 0.391587,-0.430389 0.469197,-0.430389 z"
       id="path1075" />
    <path
       style="fill:none;stroke:#000000;stroke-width:0.26458332px;stroke-linecap:butt;stroke-linejoin:miter;stroke-opacity:1;marker-end:url(#Arrow1Mend)"
       d="M 120.06,60.076754 V 47.525835"
       id="path1119"
       inkscape:connector-curvature="0"
       sodipodi:nodetypes="cc" />
    <path
       style="opacity:1;vector-effect:none;fill:none;fill-opacity:1;fill-rule:evenodd;stroke:#000000;stroke-width:0.35277778;stroke-linecap:butt;stroke-linejoin:miter;stroke-miterlimit:4;stroke-dasharray:none;stroke-dashoffset:0;stroke-opacity:1"
       id="path1121"
       sodipodi:type="arc"
       sodipodi:cx="112.61732"
       sodipodi:cy="72.104134"
       sodipodi:rx="14.083216"
       sodipodi:ry="14.083216"
       sodipodi:start="4.3275074"
       sodipodi:end="6.1235268"
       sodipodi:open="true"
       d="m 107.32978,59.051205 a 14.083216,14.083216 0 0 1 12.20106,0.783446 14.083216,14.083216 0 0 1 6.99058,10.030518" />
    <path
       style="font-style:normal;font-variant:normal;font-weight:normal;font-stretch:normal;letter-spacing:normal;word-spacing:normal;text-anchor:start;fill:#000000;fill-opacity:1;fill-rule:evenodd;stroke:#000000;stroke-width:0;stroke-linecap:butt;stroke-linejoin:miter;stroke-miterlimit:10.43299961;stroke-dasharray:none;stroke-dashoffset:0;stroke-opacity:1"
       inkscape:connector-curvature="0"
       d="m 116.8457,59.783884 v -0.03175 l -0.004,-0.02822 -0.004,-0.03175 -0.004,-0.02822 -0.007,-0.03175 -0.007,-0.02822 -0.0106,-0.03175 -0.0106,-0.02822 -0.0141,-0.02822 -0.0141,-0.02822 -0.0141,-0.02822 -0.0176,-0.02822 -0.0212,-0.0247 -0.0247,-0.02822 -0.0212,-0.0247 -0.0282,-0.02469 -0.0282,-0.02117 -0.0317,-0.02117 -0.0317,-0.0247 -0.0388,-0.01764 -0.0353,-0.02117 -0.0423,-0.01764 -0.0423,-0.01411 -0.0459,-0.01411 -0.0494,-0.01411 -0.0529,-0.01058 -0.0529,-0.01058 -0.06,-0.01058 -0.0282,-0.0035 -0.0317,-0.0035 h -0.0318 l -0.0317,-0.0035 h -0.0318 l -0.0353,-0.0035 h -0.0317 -0.0353 l -0.0388,0.119945 c 0.41275,0 0.57856,0.172861 0.57856,0.508 v 0 c 0,0.511528 -0.37042,0.726723 -0.81139,0.726723 h -0.24694 l 0.34219,-1.234723 h 0.13758 l 0.0388,-0.119945 h -0.97014 l -0.0106,0.07056 c 0.14111,0.01058 0.3175,0.01058 0.3175,0.204611 0,0.05644 -0.0176,0.127 -0.06,0.282222 l -0.49741,1.792113 c -0.11289,0.423333 -0.24695,0.402167 -0.43392,0.416278 l -0.0106,0.07408 h 1.13947 l 0.007,-0.07408 c -0.10584,0 -0.31398,-0.01411 -0.31398,-0.218723 0,-0.0388 0.004,-0.08819 0.0212,-0.144639 l 0.24694,-0.910167 c 0.16581,0 0.33162,0 0.33162,0 0.90311,0 1.20297,-0.4445 1.20297,-0.8255 z"
       id="path1796" />
    <path
       style="font-style:normal;font-variant:normal;font-weight:normal;font-stretch:normal;letter-spacing:normal;word-spacing:normal;text-anchor:start;fill:#000000;fill-opacity:1;fill-rule:evenodd;stroke:#000000;stroke-width:0;stroke-linecap:butt;stroke-linejoin:miter;stroke-miterlimit:10.43299961;stroke-dasharray:none;stroke-dashoffset:0;stroke-opacity:1"
       inkscape:connector-curvature="0"
       d="m 118.19684,61.657135 v -0.04586 -0.04939 l -0.004,-0.04586 -0.007,-0.04586 -0.004,-0.04233 -0.0106,-0.04586 -0.007,-0.04233 -0.0106,-0.04586 -0.0106,-0.04233 -0.0141,-0.03881 -0.0141,-0.04233 -0.0141,-0.03881 -0.0176,-0.03528 -0.0176,-0.03881 -0.0176,-0.03528 -0.0212,-0.03175 -0.0212,-0.03528 -0.0247,-0.02822 -0.0247,-0.03175 -0.0247,-0.02822 -0.0282,-0.02469 -0.0282,-0.0247 -0.0282,-0.02117 -0.0317,-0.02117 -0.0317,-0.01764 -0.0318,-0.01411 -0.0353,-0.01411 -0.0353,-0.01058 -0.0388,-0.01058 -0.0388,-0.0071 -0.0388,-0.0035 h -0.0388 c -0.44803,0 -0.68086,0.458611 -0.68086,0.959556 0,0.511528 0.2293,0.963084 0.68086,0.963084 l -0.007,-0.109361 c -0.28575,0 -0.32102,-0.46214 -0.32102,-0.853723 0,-0.324556 0.0176,-0.850195 0.32808,-0.850195 0.30339,0 0.32456,0.525639 0.32456,0.850195 v 0 c 0,0.391583 -0.0988,0.853723 -0.33162,0.853723 l 0.007,0.109361 c 0.42333,0 0.67028,-0.451556 0.67028,-0.963084 z"
       id="path1798" />
    <path
       style="font-style:normal;font-variant:normal;font-weight:normal;font-stretch:normal;letter-spacing:normal;word-spacing:normal;text-anchor:start;fill:#000000;fill-opacity:1;fill-rule:evenodd;stroke:#000000;stroke-width:0;stroke-linecap:butt;stroke-linejoin:miter;stroke-miterlimit:10.43299961;stroke-dasharray:none;stroke-dashoffset:0;stroke-opacity:1"
       inkscape:connector-curvature="0"
       d="m 130.03801,62.930446 h -0.0529 l -0.0564,0.0035 -0.0529,0.0035 -0.0529,0.0071 -0.0494,0.0071 -0.0494,0.0071 -0.0494,0.01058 -0.0494,0.01058 -0.0494,0.01058 -0.0459,0.01411 -0.0459,0.01058 -0.0423,0.01764 -0.0459,0.01411 -0.0388,0.01764 -0.0423,0.01764 -0.0388,0.01764 -0.0388,0.01764 -0.0388,0.01764 -0.0353,0.02117 -0.0353,0.01764 -0.0318,0.02117 -0.0317,0.02117 -0.0317,0.01764 -0.0282,0.02117 -0.0282,0.02117 -0.0247,0.02117 -0.0247,0.02117 -0.0247,0.01764 -0.0212,0.02117 -0.0212,0.02117 -0.0176,0.01764 -0.0176,0.02117 c -0.14816,0.162278 -0.15875,0.28575 -0.15875,0.296334 0,0.02117 0.0176,0.03175 0.0459,0.03175 0.0635,0 0.15875,-0.05997 0.19755,-0.08114 0.0882,-0.05645 0.0988,-0.08467 0.11995,-0.15875 0.06,-0.172862 0.17639,-0.321028 0.71261,-0.342195 -0.0776,0.945445 -0.33161,1.866196 -0.68439,2.744613 -0.0282,0.06703 -0.0282,0.07055 -0.0282,0.07761 0,0.01058 0.0176,0.02469 0.0459,0.02469 0.0635,0 0.26811,-0.09172 0.31397,-0.197555 0.21872,-0.518584 0.56092,-1.481668 0.68792,-2.649363 h 0.22225 c 0.51153,0 1.00189,0.197556 1.00189,0.617361 0,0.313973 -0.30339,0.903112 -1.11831,0.931334 -0.0882,0 -0.13406,0 -0.25047,0.07761 -0.0741,0.04939 -0.10936,0.09878 -0.10936,0.119944 0,0.03175 0.0212,0.03175 0.0776,0.03175 0.76553,0 1.76036,-0.649111 1.76036,-1.344084 0,-0.479778 -0.56797,-0.666751 -1.05481,-0.666751 z"
       id="path1800" />
    <path
       style="font-style:normal;font-variant:normal;font-weight:normal;font-stretch:normal;letter-spacing:normal;word-spacing:normal;text-anchor:start;fill:#000000;fill-opacity:1;fill-rule:evenodd;stroke:#000000;stroke-width:0;stroke-linecap:butt;stroke-linejoin:miter;stroke-miterlimit:10.43299961;stroke-dasharray:none;stroke-dashoffset:0;stroke-opacity:1"
       inkscape:connector-curvature="0"
       d="m 106.39069,60.198979 v 0 -0.0035 -0.0035 h -0.004 v 0 -0.0035 0 -0.0035 0 h -0.004 v -0.0035 0 0 l -0.004,-0.0035 v 0 0 h -0.004 v -0.0035 h -0.004 v 0 0 h -0.004 v 0 h -0.004 v 0 l -0.004,-0.0035 v 0 h -0.004 v 0 h -0.004 -0.004 v 0 c -0.0741,0 -0.17639,0.0635 -0.17639,0.0635 -0.0882,0.05292 -0.10583,0.08467 -0.15522,0.15875 -0.127,0.194028 -0.31397,0.335139 -0.58914,0.335139 -0.37394,0 -0.71614,-0.268111 -0.71614,-0.903112 0,-0.373945 0.14817,-0.878417 0.37395,-1.206501 0.18344,-0.271639 0.41275,-0.490361 0.84314,-0.490361 0.15875,0 0.26458,0.05997 0.26458,0.215195 0,0.148166 -0.15875,0.4445 -0.20814,0.529167 -0.0247,0.04939 -0.0247,0.05292 -0.0247,0.0635 0,0.02822 0.0176,0.02822 0.0459,0.02822 0.0811,0 0.23636,-0.09172 0.2928,-0.15875 0.004,-0.01764 0.24695,-0.430389 0.24695,-0.645584 0,-0.232833 -0.18697,-0.264583 -0.33514,-0.264583 -0.61383,0 -1.11478,0.402166 -1.30881,0.635 -0.50094,0.606778 -0.55033,1.25589 -0.55033,1.474612 0,0.617361 0.31397,0.956028 0.80081,0.956028 0.67733,0 1.23472,-0.656167 1.23472,-0.762 z"
       id="path1802" />
    <path
       style="fill:none;stroke:#000000;stroke-width:0.26458332px;stroke-linecap:butt;stroke-linejoin:miter;stroke-opacity:1;marker-end:url(#Arrow1Mend-3)"
       d="m 120.07041,60.058901 11.80206,-4.270476"
       id="path1119-7"
       inkscape:connector-curvature="0"
       sodipodi:nodetypes="cc"
       inkscape:transform-center-x="-5.8935123"
       inkscape:transform-center-y="-2.1515827" />
  </g>
</svg>
