<?xml version="1.0" encoding="UTF-8" standalone="no"?>
<svg
   xmlns:dc="http://purl.org/dc/elements/1.1/"
   xmlns:cc="http://creativecommons.org/ns#"
   xmlns:rdf="http://www.w3.org/1999/02/22-rdf-syntax-ns#"
   xmlns:svg="http://www.w3.org/2000/svg"
   xmlns="http://www.w3.org/2000/svg"
   id="svg8"
   version="1.1"
   viewBox="0 0 63.840725 66.487778"
   height="66.487778mm"
   width="63.840725mm">
  <defs
     id="defs2">
    <clipPath
       id="clipPath1503"
       clipPathUnits="userSpaceOnUse">
      <rect
         y="40.663189"
         x="149.89848"
         height="403.30646"
         width="518.22461"
         id="rect1505"
         style="fill:none;fill-opacity:1;stroke:#000000;stroke-width:0.8415038;stroke-miterlimit:10;stroke-dasharray:none;stroke-dashoffset:0;stroke-opacity:0.8" />
    </clipPath>
    <clipPath
       id="clipPath1608"
       clipPathUnits="userSpaceOnUse">
      <rect
         y="45.763268"
         x="-7.4201207"
         height="407.672"
         width="815.30621"
         id="rect1610"
         style="fill:none;fill-opacity:1;stroke:#000000;stroke-width:0.81244814;stroke-miterlimit:10;stroke-dasharray:none;stroke-dashoffset:0;stroke-opacity:0.8" />
    </clipPath>
  </defs>
  <metadata
     id="metadata5">
    <rdf:RDF>
      <cc:Work
         rdf:about="">
        <dc:format>image/svg+xml</dc:format>
        <dc:type
           rdf:resource="http://purl.org/dc/dcmitype/StillImage" />
        <dc:title></dc:title>
      </cc:Work>
    </rdf:RDF>
  </metadata>
  <g
     transform="translate(-89.60908,-28.670634)"
     id="layer1">
    <path
       id="path817"
       d="m 99.636238,102.17207 v 58.60412"
       style="fill:none;stroke:#cacaff;stroke-width:0.12158532;stroke-linecap:butt;stroke-linejoin:miter;stroke-miterlimit:10;stroke-opacity:1" />
    <path
       id="path819"
       d="m 99.636238,102.05048 -0.36474,0.36476"
       style="fill:none;stroke:#cacaff;stroke-width:0.12158532;stroke-linecap:butt;stroke-linejoin:miter;stroke-miterlimit:10;stroke-opacity:1" />
    <path
       id="path821"
       d="m 99.636238,102.05048 0.364772,0.36476"
       style="fill:none;stroke:#cacaff;stroke-width:0.12158532;stroke-linecap:butt;stroke-linejoin:miter;stroke-miterlimit:10;stroke-opacity:1" />
    <path
       id="path829"
       d="m 63.525406,141.56571 v 0.36476"
       style="fill:none;stroke:#cacaff;stroke-width:0.12158532;stroke-linecap:butt;stroke-linejoin:miter;stroke-miterlimit:10;stroke-opacity:1" />
    <path
       id="path831"
       d="m 75.562353,141.56571 v 0.36476"
       style="fill:none;stroke:#cacaff;stroke-width:0.12158532;stroke-linecap:butt;stroke-linejoin:miter;stroke-miterlimit:10;stroke-opacity:1" />
    <path
       id="path833"
       d="m 87.599298,141.56571 v 0.36476"
       style="fill:none;stroke:#cacaff;stroke-width:0.12158532;stroke-linecap:butt;stroke-linejoin:miter;stroke-miterlimit:10;stroke-opacity:1" />
    <path
       id="path835"
       d="m 99.636238,141.56571 v 0.36476"
       style="fill:none;stroke:#cacaff;stroke-width:0.12158532;stroke-linecap:butt;stroke-linejoin:miter;stroke-miterlimit:10;stroke-opacity:1" />
    <path
       id="path837"
       d="m 111.6732,141.56571 v 0.36476"
       style="fill:none;stroke:#cacaff;stroke-width:0.12158532;stroke-linecap:butt;stroke-linejoin:miter;stroke-miterlimit:10;stroke-opacity:1" />
    <path
       id="path839"
       d="m 123.71014,141.56571 v 0.36476"
       style="fill:none;stroke:#cacaff;stroke-width:0.12158532;stroke-linecap:butt;stroke-linejoin:miter;stroke-miterlimit:10;stroke-opacity:1" />
    <path
       id="path841"
       d="m 135.74709,141.56571 v 0.36476"
       style="fill:none;stroke:#cacaff;stroke-width:0.12158532;stroke-linecap:butt;stroke-linejoin:miter;stroke-miterlimit:10;stroke-opacity:1" />
    <path
       id="path843"
       d="m 147.78403,141.56571 v 0.36476"
       style="fill:none;stroke:#cacaff;stroke-width:0.12158532;stroke-linecap:butt;stroke-linejoin:miter;stroke-miterlimit:10;stroke-opacity:1" />
    <path
       id="path845"
       d="m 159.82098,141.56571 v 0.36476"
       style="fill:none;stroke:#cacaff;stroke-width:0.12158532;stroke-linecap:butt;stroke-linejoin:miter;stroke-miterlimit:10;stroke-opacity:1" />
    <path
       id="path847"
       d="m 171.85792,141.56571 v 0.36476"
       style="fill:none;stroke:#cacaff;stroke-width:0.12158532;stroke-linecap:butt;stroke-linejoin:miter;stroke-miterlimit:10;stroke-opacity:1" />
    <path
       id="path871"
       d="m 99.271498,153.48107 h 0.36474"
       style="fill:none;stroke:#cacaff;stroke-width:0.12158532;stroke-linecap:butt;stroke-linejoin:miter;stroke-miterlimit:10;stroke-opacity:1" />
    <path
       id="path873"
       d="m 99.271498,129.77194 h 0.36474"
       style="fill:none;stroke:#cacaff;stroke-width:0.12158532;stroke-linecap:butt;stroke-linejoin:miter;stroke-miterlimit:10;stroke-opacity:1" />
    <path
       id="path875"
       d="m 99.271498,117.85658 h 0.36474"
       style="fill:none;stroke:#cacaff;stroke-width:0.12158532;stroke-linecap:butt;stroke-linejoin:miter;stroke-miterlimit:10;stroke-opacity:1" />
    <path
       id="path877"
       d="m 99.271498,106.0628 h 0.36474"
       style="fill:none;stroke:#cacaff;stroke-width:0.12158532;stroke-linecap:butt;stroke-linejoin:miter;stroke-miterlimit:10;stroke-opacity:1" />
    <path
       id="path879"
       d="m 68.184118,136.17987 2.493925,0.64735 0.65732,-2.45594 -2.493923,-0.64735 -0.657322,2.45594"
       style="fill:#000000;fill-opacity:0.09803922;fill-rule:evenodd;stroke:#000000;stroke-width:0.12158532;stroke-linecap:round;stroke-linejoin:round;stroke-miterlimit:10;stroke-opacity:1" />
    <path
       id="path881"
       d="m 144.82609,135.73009 v -2.53999 h -2.57941 v 2.53999 h 2.57941"
       style="fill:#000000;fill-opacity:0.09803922;fill-rule:evenodd;stroke:#000000;stroke-width:0.12158532;stroke-linecap:round;stroke-linejoin:round;stroke-miterlimit:10;stroke-opacity:1" />
    <path
       id="path883"
       d="m 118.79971,135.73009 c 0,-0.60935 -0.15721,-1.20873 -0.45737,-1.74161 l -3.19019,1.74161 z m 0,0"
       style="fill:#000000;fill-opacity:0.09803922;fill-rule:nonzero;stroke:#000000;stroke-width:0.12158532;stroke-linecap:round;stroke-linejoin:round;stroke-miterlimit:10;stroke-opacity:1" />
    <path
       id="path885"
       d="m 123.1915,133.69972 c 0,0 0,0.3163 -0.16101,0.64069 0,0 -0.14485,0.28972 -0.32058,0.38233 0,0 -0.0641,0.0332 -0.12396,0.0332 0,0 -0.16955,0 -0.2275,-0.2313 0,0 -0.0205,-0.0869 -0.0205,-0.19236 0,0 0,-0.32438 0.16528,-0.65114 0,0 0.14485,-0.28307 0.32058,-0.37426 0,0 0.0618,-0.0309 0.11967,-0.0309 0,0 0.18001,0 0.2313,0.26264 0,0 0.0165,0.0784 0.0165,0.16101 m -0.63452,0.28306 h 0.4322 c 0,0 0.066,-0.27262 0.066,-0.41129 0,0 0,-0.2332 -0.0974,-0.24792 0,0 -0.009,-10e-4 -0.0162,-10e-4 0,0 -0.10545,0 -0.2256,0.21705 0,0 -0.0784,0.13821 -0.15721,0.4341 0,0 0,0.006 -10e-4,0.01 m 0.41368,0.0665 h -0.43041 c 0,0 -0.066,0.24983 -0.066,0.40893 0,0 0,0.2484 0.11158,0.2522 0,0 0.11587,0 0.23984,-0.24174 0,0 0.0807,-0.15294 0.14486,-0.41939 z m 0,0"
       style="fill:#000000;fill-opacity:1;fill-rule:nonzero;stroke:none;stroke-width:0.12158532" />
    <path
       id="path887"
       d="M 58.661994,133.70874 165.29801,161.38412"
       style="fill:none;stroke:#000000;stroke-width:0.12158532;stroke-linecap:round;stroke-linejoin:round;stroke-miterlimit:10;stroke-opacity:1" />
    <path
       id="path889"
       d="m 61.476979,130.03981 c 0,0 -0.03514,0.15482 -0.217049,0.26264 0,0 -0.128235,0.0765 -0.237946,0.0765 0,0 -0.09261,0 -0.312038,-0.0579 0,0 -0.185702,-0.056 -0.313936,-0.0598 0,0 -0.05605,0.0765 -0.157207,0.10925 0,0 -0.02043,0.009 -0.03514,0.009 0,0 -0.01851,0 -0.01851,-0.0124 0,0 0,-0.0271 0.07456,-0.0955 l 0.05129,-0.0703 c 0,0 0.09547,-0.14247 0.151031,-0.3638 0,0 0.105435,-0.41321 0.2066,-0.59084 0,0 0.04132,-0.0727 0.09309,-0.13441 0,0 0.109714,-0.13012 0.28544,-0.19852 0,0 0.09309,-0.037 0.175729,-0.037 0,0 0.146758,0 0.173355,0.14248 v 0.002 c 0,0 0.0043,0.0251 0.0043,0.0499 0,0 0,0.0888 -0.03942,0.12396 0,0 -0.0043,0.002 -0.01425,0.011 0,0 -0.08264,0.0618 -0.138683,0.0618 0,0 -0.01663,0 -0.01663,-0.0142 l 0.0086,-0.0745 v -0.001 c 0,0 0,-0.12016 -0.07884,-0.1572 0,0 -0.02897,-0.0142 -0.06411,-0.0142 0,0 -0.06601,0 -0.09689,0.0309 l -0.0043,0.004 c 0,0 -0.0043,0.002 -0.01042,0.01 0,0 -0.146756,0.14912 -0.283065,0.68867 0,0 -0.05985,0.24364 -0.169555,0.40275 0,0 0.03135,-0.009 0.07884,-0.009 0,0 0.109236,0 0.334834,0.066 0,0 0.183802,0.0517 0.278792,0.0517 0,0 0.03324,0 0.04559,-0.0124 0,0 0.0018,-0.004 0.0081,-0.0124 l 0.03135,-0.0622 c 0,0 0.01425,-0.0413 0.04512,-0.0661 h 0.0023 c 0,0 0.01042,-0.009 0.0266,-0.0185 0,0 0.06649,-0.0456 0.113981,-0.0456 0,0 0.01235,0 0.01853,0.006 z m 0,0"
       style="fill:#000000;fill-opacity:1;fill-rule:nonzero;stroke:none;stroke-width:0.12158532" />
    <path
       id="path891"
       d="M 61.438984,161.38412 77.512942,101.32097"
       style="fill:none;stroke:#000000;stroke-width:0.12158532;stroke-linecap:butt;stroke-linejoin:round;stroke-miterlimit:10;stroke-dasharray:1.1550605, 0.97268253;stroke-opacity:0.14902003" />
    <path
       id="path893"
       d="m 115.15215,135.73009 h 29.67394"
       style="fill:none;stroke:#000000;stroke-width:0.12158532;stroke-linecap:butt;stroke-linejoin:round;stroke-miterlimit:10;stroke-dasharray:1.1550605, 0.97268253;stroke-opacity:1" />
    <path
       id="path895"
       d="m 144.82609,119.53075 v 16.19934"
       style="fill:none;stroke:#000000;stroke-width:0.12158532;stroke-linecap:butt;stroke-linejoin:round;stroke-miterlimit:10;stroke-dasharray:1.1550605, 0.97268253;stroke-opacity:1" />
    <path
       id="path897"
       d="m 68.406392,142.79867 20.000306,5.19064"
       style="fill:none;stroke:#000000;stroke-width:0.12158532;stroke-linecap:round;stroke-linejoin:round;stroke-miterlimit:10;stroke-opacity:1" />
    <path
       id="path899"
       d="m 90.172058,148.44716 -1.88029,-0.0166 0.22939,-0.88245 z m 0,0"
       style="fill:#000000;fill-opacity:1;fill-rule:evenodd;stroke:none;stroke-width:0.12158532" />
    <path
       id="path901"
       d="m 80.92778,142.90695 h -0.661595 c 0,0 -0.06411,0 -0.07029,-0.0289 0,0 -0.0018,-0.006 -0.0018,-0.0124 0,0 0.01235,-0.0413 0.07219,-0.0413 h 0.696682 c 0,0 -0.04132,-0.0537 -0.0494,-0.12016 0,0 0,-0.0327 0.02897,-0.0413 0,0 0.0061,-0.002 0.01235,-0.002 0,0 0.03087,0 0.04132,0.0456 0,0 0.0266,0.0784 0.08454,0.11783 0,0 0.02897,0.0204 0.02897,0.0413 0,0 0,0.0228 -0.03514,0.0433 0,0 -0.09309,0.0456 -0.163381,0.13441 0,0 -0.02279,0.0271 -0.03894,0.0271 0,0 -0.02897,0 -0.03942,-0.0289 0,0 -0.0023,-0.006 -0.0023,-0.0124 0,0 0,-0.0332 0.09737,-0.122 z m 0,0"
       style="fill:#000000;fill-opacity:1;fill-rule:nonzero;stroke:none;stroke-width:0.12158532" />
    <path
       id="path903"
       d="m 80.71833,143.3553 c 0,0 0.01042,-0.0703 0.06411,-0.0869 0,0 0.0099,-0.004 0.02279,-0.004 0,0 0.05367,0 0.05985,0.0556 0,0 0,0.0124 -0.01473,0.0703 l -0.07409,0.28924 c 0,0 -0.03135,0.13061 -0.0456,0.18617 0,0 -0.02707,0.10729 -0.02707,0.15294 0,0 0,0.095 0.06221,0.095 0,0 0.07836,0 0.132034,-0.16528 0,0 0.01042,-0.0352 0.02517,-0.0907 0,0 0.01615,-0.0352 0.02897,-0.0375 0,0 0.02469,0 0.02469,0.0208 0,0 0,0.0309 -0.03752,0.14486 0,0 -0.01235,0.0352 -0.0247,0.0598 0,0 -0.05795,0.11354 -0.152931,0.11354 0,0 -0.115894,0 -0.16718,-0.0993 0,0 -0.01473,-0.0248 -0.02089,-0.0555 0,0 -0.130134,0.15483 -0.268817,0.15483 0,0 -0.154832,0 -0.229397,-0.14058 0,0 -0.04512,-0.0826 -0.04512,-0.18998 0,0 0,-0.22323 0.154832,-0.41368 0,0 0.144857,-0.17335 0.313937,-0.18998 0,0 0.01472,-0.002 0.02897,-0.002 0,0 0.126335,0 0.190452,0.13203 m -0.134408,0.53527 0.103534,-0.40513 c 0,0 0.0061,-0.0309 0.0061,-0.0352 0,0 0,-0.0432 -0.03752,-0.10544 0,0 -0.0456,-0.0765 -0.125861,-0.0765 0,0 -0.107813,0 -0.204699,0.14057 0,0 -0.01853,0.0271 -0.03514,0.058 0,0 -0.05985,0.12016 -0.101168,0.34101 0,0 -0.01235,0.0703 -0.01235,0.11158 0,0 0,0.14057 0.07836,0.18189 0,0 0.02279,0.0124 0.05367,0.0124 0,0 0.115894,0 0.233674,-0.14677 0,0 0.02897,-0.0327 0.03942,-0.0679 v -0.002 c 0,0 0.0018,-0.004 0.0018,-0.006 z m 0,0"
       style="fill:#000000;fill-opacity:1;fill-rule:nonzero;stroke:none;stroke-width:0.12158532" />
    <path
       id="path905"
       d="M 91.534198,142.24013 73.909552,120.49345"
       style="fill:none;stroke:#000000;stroke-width:0.12158532;stroke-linecap:round;stroke-linejoin:round;stroke-miterlimit:10;stroke-opacity:1" />
    <path
       id="path907"
       d="m 72.761141,119.07623 1.502718,1.12988 -0.708614,0.57421 z m 0,0"
       style="fill:#000000;fill-opacity:1;fill-rule:evenodd;stroke:none;stroke-width:0.12158532" />
    <path
       id="path909"
       d="m 84.575339,130.74843 h -0.661595 c 0,0 -0.06412,0 -0.07029,-0.0289 0,0 -0.0018,-0.006 -0.0018,-0.0124 0,0 0.01235,-0.0413 0.0722,-0.0413 h 0.696741 c 0,0 -0.04132,-0.0537 -0.0494,-0.12016 0,0 0,-0.0327 0.02849,-0.0413 0,0 0.0066,-0.002 0.01283,-0.002 0,0 0.03087,0 0.04132,0.0456 0,0 0.02659,0.0784 0.08454,0.11783 0,0 0.02897,0.0205 0.02897,0.0413 0,0 0,0.0228 -0.03514,0.0433 0,0 -0.09309,0.0456 -0.163381,0.13441 0,0 -0.02279,0.0271 -0.03894,0.0271 0,0 -0.02897,0 -0.03942,-0.0289 0,0 -0.0023,-0.006 -0.0023,-0.0124 0,0 0,-0.0332 0.09737,-0.12212 z m 0,0"
       style="fill:#000000;fill-opacity:1;fill-rule:nonzero;stroke:none;stroke-width:0.12158532" />
    <path
       id="path911"
       d="m 84.397711,131.19249 c 0,0 -0.05795,-0.0741 -0.178105,-0.0826 0,0 -0.133934,0 -0.243644,0.13679 0,0 -0.02707,0.0327 -0.0475,0.0703 0,0 -0.08264,0.15055 -0.107814,0.35524 0,0 -0.0038,0.0332 -0.0038,0.058 0,0 0,0.16955 0.115416,0.21277 0,0 0.02897,0.0124 0.07029,0.0124 0,0 0.186176,0 0.334834,-0.12396 0,0 0.0437,-0.0352 0.07884,-0.0803 0,0 0.01425,-0.0208 0.02659,-0.0208 0,0 0.01899,0 0.02517,0.0271 0,0 0,0.0223 -0.07029,0.0888 0,0 -0.171929,0.15484 -0.398952,0.15484 0,0 -0.196627,0 -0.285441,-0.15722 0,0 -0.04939,-0.0846 -0.04939,-0.19187 0,0 0,-0.21087 0.161006,-0.39088 0,0 0.159105,-0.17763 0.355731,-0.19424 0,0 0.01853,-0.001 0.03704,-0.001 0,0 0.159105,0 0.221322,0.0969 0,0 0.02279,0.0375 0.02279,0.0807 0,0 0,0.0907 -0.07266,0.12397 0,0 -0.02043,0.009 -0.04322,0.009 0,0 -0.06221,0 -0.07456,-0.0537 0,0 -0.0018,-0.009 -0.0018,-0.0185 0,0 0,-0.0456 0.03704,-0.0808 0,0 0.02897,-0.0289 0.09119,-0.0289 z m 0,0"
       style="fill:#000000;fill-opacity:1;fill-rule:nonzero;stroke:none;stroke-width:0.12158532" />
    <path
       id="path913"
       d="m 115.15215,135.73009 28.0729,-15.32544"
       style="fill:none;stroke:#000000;stroke-width:0.12158532;stroke-linecap:round;stroke-linejoin:round;stroke-miterlimit:10;stroke-opacity:1" />
    <path
       id="path915"
       d="m 144.82609,119.53075 -1.38255,1.2738 -0.43696,-0.80028 z m 0,0"
       style="fill:#000000;fill-opacity:1;fill-rule:evenodd;stroke:none;stroke-width:0.12158532" />
    <path
       id="path917"
       d="M 91.534198,142.24013 69.949481,136.63818"
       style="fill:none;stroke:#000000;stroke-width:0.12158532;stroke-linecap:round;stroke-linejoin:round;stroke-miterlimit:10;stroke-opacity:1" />
    <path
       id="path919"
       d="m 68.184118,136.17987 1.879823,0.017 -0.228922,0.88245 z m 0,0"
       style="fill:#000000;fill-opacity:1;fill-rule:evenodd;stroke:none;stroke-width:0.12158532" />
    <path
       id="path921"
       d="m 76.396352,142.0245 v 0.49205 c 0,0 0,0.0618 0.02469,0.0784 0,0 0.02897,0.0185 0.138683,0.0185 h 0.04939 v 0.0641 c 0,0 -0.07219,-0.006 -0.305863,-0.006 0,0 -0.231296,0 -0.303963,0.006 v -0.0641 h 0.04987 c 0,0 0.134407,0 0.154829,-0.0352 0,0 0.0086,-0.0142 0.0086,-0.0618 v -1.08952 c 0,0 0,-0.0618 -0.02517,-0.0784 0,0 -0.02897,-0.0185 -0.138208,-0.0185 h -0.04987 v -0.0641 h 0.729988 c 0,0 0.239371,0 0.384227,0.14867 0,0 0.103534,0.10349 0.103534,0.23556 0,0 0,0.16339 -0.159106,0.2769 0,0 -0.136783,0.0974 -0.312512,0.0974 h -0.349123 m -0.0061,-0.0537 h 0.284965 c 0,0 0.314413,0 0.328662,-0.27308 v -0.0474 c 0,0 0,-0.16719 -0.07409,-0.23985 0,0 -0.08264,-0.0803 -0.254569,-0.0803 h -0.183838 c 0,0 -0.08074,0 -0.09499,0.0248 v 0.004 c 0,0 -0.0061,0.0124 -0.0061,0.0537 z m 0,0"
       style="fill:#000000;fill-opacity:1;fill-rule:nonzero;stroke:none;stroke-width:0.12158532" />
    <path
       id="path923"
       d="m 77.689146,142.51655 c 0,0 0,0.0641 0.02517,0.0784 l 0.0018,0.002 c 0,0 0.02897,0.0162 0.130136,0.0162 h 0.04322 v 0.0641 c 0,0 -0.08264,-0.006 -0.262168,-0.006 0,0 0.0061,0 -0.235572,0.006 v -0.0641 c 0,0 0.121582,0 0.142483,-0.0185 l 0.0043,-0.004 c 0,0 0.01425,-0.0162 0.01425,-0.0702 v -0.55378 c 0,0 0,-0.0807 -0.03087,-0.0993 0,0 -0.02469,-0.0142 -0.08882,-0.0165 h -0.04132 v -0.0636 l 0.287341,-0.0228 v 0.22702 c 0,0 0.05557,-0.17336 0.183801,-0.21705 0,0 0.03324,-0.01 0.07029,-0.01 0,0 0.09689,0 0.138208,0.0722 0,0 0.01473,0.0248 0.01473,0.0537 0,0 0,0.0722 -0.06839,0.0888 0,0 -0.0099,0.002 -0.02043,0.002 0,0 -0.06411,0 -0.08264,-0.056 0,0 -0.0061,-0.0142 -0.0061,-0.0332 0,0 0,-0.0555 0.04749,-0.0803 0,0 -0.0043,-0.002 -0.02279,-0.002 0,0 -0.138684,0 -0.2047,0.16956 0,0 -0.03942,0.0973 -0.03942,0.21941 z m 0,0"
       style="fill:#000000;fill-opacity:1;fill-rule:nonzero;stroke:none;stroke-width:0.12158532" />
    <path
       id="path925"
       d="m 79.116823,142.23539 c 0,0 0,0.21277 -0.157205,0.35145 0,0 -0.130135,0.11354 -0.301589,0.11354 0,0 -0.198527,0 -0.334834,-0.14865 0,0 -0.122062,-0.13441 -0.122062,-0.31631 0,0 0,-0.21088 0.151033,-0.35573 0,0 0.130133,-0.12777 0.307763,-0.12777 0,0 0.200425,0 0.33721,0.15912 0,0 0.119682,0.13821 0.119682,0.32438 m -0.456895,0.4132 c 0,0 0.138684,0 0.219423,-0.11538 l 0.02043,-0.0375 c 0,0 0.04559,-0.0907 0.04559,-0.27689 0,0 0,-0.19852 -0.05367,-0.28734 0,0 -0.08881,-0.12823 -0.23367,-0.13441 0,0 -0.128235,0 -0.210876,0.10349 0,0 -0.01425,0.0167 -0.02469,0.0352 0,0 -0.04987,0.0907 -0.04987,0.28306 0,0 0,0.20042 0.05177,0.29161 0,0 0.08692,0.13441 0.235571,0.13821 z m 0,0"
       style="fill:#000000;fill-opacity:1;fill-rule:nonzero;stroke:none;stroke-width:0.12158532" />
    <path
       id="path927"
       d="m 79.97742,141.98318 -0.363806,0.88245 c 0,0 -0.09927,0.23557 -0.264543,0.23557 0,0 -0.107814,0 -0.163381,-0.0826 0,0 -0.02707,-0.039 -0.02707,-0.0846 0,0 0,-0.0722 0.06602,-0.0869 0,0 0.01042,-0.001 0.02089,-0.001 0,0 0.06411,0 0.08264,0.058 0,0 0.0043,0.0142 0.0043,0.0289 0,0 0,0.0741 -0.08074,0.0864 0,0 0.03942,0.0375 0.09737,0.0375 0,0 0.121583,0 0.202325,-0.1781 0,0 0.01235,-0.0266 0.03324,-0.0784 0,0 0.02897,-0.0622 0.05129,-0.122 l -0.309664,-0.75421 c 0,0 -0.02517,-0.0598 -0.08074,-0.0684 0,0 -0.03942,-0.004 -0.08692,-0.004 v -0.0636 c 0,0 0.09309,0.006 0.200425,0.006 0,0 0.06411,0 0.225598,-0.006 v 0.0636 c 0,0 -0.115882,0 -0.115882,0.0542 0,0 0,0.006 0.01235,0.037 l 0.229396,0.55616 0.208975,-0.50867 c 0,0 0.01235,-0.0289 0.01235,-0.0494 0,0 0,-0.0788 -0.08502,-0.0893 h -0.01235 v -0.0636 c 0,0 0.136309,0.006 0.180003,0.006 0,0 0.08454,0 0.154831,-0.006 v 0.0636 c 0,0 -0.138207,0 -0.191876,0.1325 z m 0,0"
       style="fill:#000000;fill-opacity:1;fill-rule:nonzero;stroke:none;stroke-width:0.12158532" />
    <path
       id="path929"
       d="m 80.987148,142.29095 h -0.46307 c 0,0 -0.04464,0 -0.04892,-0.02 0,0 -0.0015,-0.005 -0.0015,-0.009 0,0 0.0086,-0.0289 0.05035,-0.0289 h 0.487766 c 0,0 -0.02897,-0.0375 -0.03467,-0.0836 0,0 0,-0.0233 0.02041,-0.0289 0,0 0.0043,-0.001 0.0086,-0.001 0,0 0.02185,0 0.02897,0.0318 0,0 0.01851,0.0546 0.05937,0.0822 0,0 0.01995,0.0147 0.01995,0.0289 0,0 0,0.0161 -0.02422,0.0304 0,0 -0.06554,0.0317 -0.114459,0.094 0,0 -0.01615,0.019 -0.02755,0.019 0,0 -0.02043,0 -0.02755,-0.0205 0,0 -0.0015,-0.004 -0.0015,-0.009 0,0 0,-0.0233 0.06791,-0.0855 z m 0,0"
       style="fill:#000000;fill-opacity:1;fill-rule:nonzero;stroke:none;stroke-width:0.12158532" />
    <path
       id="path931"
       d="m 80.840391,142.60489 c 0,0 0.0076,-0.0489 0.04512,-0.0608 0,0 0.0071,-0.002 0.01567,-0.002 0,0 0.038,0 0.04226,0.039 0,0 0,0.009 -0.01042,0.0494 l -0.05177,0.2028 c 0,0 -0.02185,0.0907 -0.03182,0.13013 0,0 -0.01899,0.075 -0.01899,0.10692 0,0 0,0.0665 0.04322,0.0665 0,0 0.05509,0 0.09261,-0.11538 0,0 0.0076,-0.0248 0.01757,-0.0636 0,0 0.0114,-0.0248 0.02043,-0.0261 0,0 0.01709,0 0.01709,0.0142 0,0 0,0.0218 -0.02612,0.10116 0,0 -0.0086,0.0248 -0.01709,0.0423 0,0 -0.04084,0.0793 -0.107335,0.0793 0,0 -0.08074,0 -0.116838,-0.0694 0,0 -0.01042,-0.017 -0.01473,-0.039 0,0 -0.09119,0.10827 -0.188076,0.10827 0,0 -0.108292,0 -0.160531,-0.0983 0,0 -0.03182,-0.0579 -0.03182,-0.13297 0,0 0,-0.15626 0.108292,-0.28924 0,0 0.101634,-0.12164 0.219899,-0.13347 0,0 0.01042,-0.001 0.02043,-0.001 0,0 0.08834,0 0.132983,0.0926 m -0.09404,0.37473 0.07266,-0.28354 c 0,0 0.0043,-0.0218 0.0043,-0.0248 0,0 0,-0.0304 -0.02612,-0.0736 0,0 -0.03182,-0.0537 -0.08834,-0.0537 0,0 -0.07504,0 -0.142958,0.0983 0,0 -0.01329,0.019 -0.02469,0.0408 0,0 -0.04228,0.0836 -0.07076,0.23844 0,0 -0.0091,0.0494 -0.0091,0.0783 0,0 0,0.0983 0.05509,0.12729 0,0 0.01615,0.009 0.03752,0.009 0,0 0.08122,0 0.163379,-0.10262 0,0 0.02043,-0.0233 0.02755,-0.0479 v -0.001 c 0,0 0.0015,-0.002 0.0015,-0.004 z m 0,0"
       style="fill:#000000;fill-opacity:1;fill-rule:nonzero;stroke:none;stroke-width:0.12158532" />
    <path
       id="path933"
       d="m 82.175454,141.44793 h -0.66112 c 0,0 -0.06411,0 -0.07029,-0.0289 0,0 -0.0023,-0.006 -0.0023,-0.0124 0,0 0.01283,-0.0413 0.07266,-0.0413 h 0.696267 c 0,0 -0.04132,-0.0537 -0.0494,-0.12016 0,0 0,-0.0327 0.02897,-0.0413 0,0 0.0061,-0.002 0.01235,-0.002 0,0 0.03087,0 0.04132,0.0456 0,0 0.02707,0.0784 0.08454,0.11783 0,0 0.02897,0.0205 0.02897,0.0413 0,0 0,0.0228 -0.03514,0.0432 0,0 -0.09261,0.0456 -0.162906,0.13441 0,0 -0.02279,0.0271 -0.03942,0.0271 0,0 -0.02897,0 -0.03942,-0.0289 0,0 -0.0018,-0.006 -0.0018,-0.0124 0,0 0,-0.0332 0.09689,-0.122 z m 0,0"
       style="fill:#000000;fill-opacity:1;fill-rule:nonzero;stroke:none;stroke-width:0.12158532" />
    <path
       id="path935"
       d="m 81.997826,141.892 c 0,0 -0.05795,-0.0741 -0.17763,-0.0826 0,0 -0.134408,0 -0.244119,0.13678 0,0 -0.0266,0.0327 -0.0475,0.0703 0,0 -0.08264,0.15056 -0.107336,0.35526 0,0 -0.0043,0.0332 -0.0043,0.0579 0,0 0,0.16956 0.115881,0.21278 0,0 0.02897,0.0124 0.07029,0.0124 0,0 0.185703,0 0.334835,-0.12396 0,0 0.04322,-0.0352 0.07836,-0.0803 0,0 0.01473,-0.0208 0.02707,-0.0208 0,0 0.01853,0 0.02469,0.0271 0,0 0,0.0223 -0.07029,0.0888 0,0 -0.171456,0.15482 -0.398951,0.15482 0,0 -0.196152,0 -0.284966,-0.1572 0,0 -0.04987,-0.0846 -0.04987,-0.19188 0,0 0,-0.21087 0.161481,-0.39087 0,0 0.159106,-0.17763 0.355257,-0.19426 0,0 0.01852,-0.002 0.03704,-0.002 0,0 0.15958,0 0.221323,0.0969 0,0 0.02279,0.0375 0.02279,0.0807 0,0 0,0.0907 -0.07219,0.12396 0,0 -0.02089,0.009 -0.0437,0.009 0,0 -0.06175,0 -0.07409,-0.0537 0,0 -0.0023,-0.009 -0.0023,-0.0185 0,0 0,-0.0456 0.03752,-0.0807 0,0 0.0285,-0.0289 0.09072,-0.0289 z m 0,0"
       style="fill:#000000;fill-opacity:1;fill-rule:nonzero;stroke:none;stroke-width:0.12158532" />
    <path
       id="path937"
       d="m 91.534198,142.24013 2.68533,-15.71727"
       style="fill:none;stroke:#000000;stroke-width:0.12158532;stroke-linecap:round;stroke-linejoin:round;stroke-miterlimit:10;stroke-opacity:1" />
    <path
       id="path939"
       d="m 94.526808,124.7252 0.14201,1.8746 -0.89859,-0.15341 z m 0,0"
       style="fill:#000000;fill-opacity:1;fill-rule:evenodd;stroke:none;stroke-width:0.12158532" />
    <path
       id="path941"
       d="m 94.180588,134.09012 h -0.6616 c 0,0 -0.0641,0 -0.0703,-0.0289 0,0 -0.002,-0.006 -0.002,-0.0124 0,0 0.0123,-0.0413 0.0722,-0.0413 h 0.69674 c 0,0 -0.0413,-0.0537 -0.0494,-0.11968 0,0 0,-0.0332 0.0285,-0.0413 0,0 0.006,-0.002 0.0129,-0.002 0,0 0.0309,0 0.0413,0.0456 0,0 0.0266,0.0784 0.0846,0.11784 0,0 0.0289,0.0208 0.0289,0.0413 0,0 0,0.0228 -0.0352,0.0436 0,0 -0.0931,0.0451 -0.16338,0.13394 0,0 -0.0228,0.0271 -0.039,0.0271 0,0 -0.029,0 -0.0394,-0.0289 0,0 -0.002,-0.006 -0.002,-0.0124 0,0 0,-0.0332 0.0974,-0.12213 z m 0,0"
       style="fill:#000000;fill-opacity:1;fill-rule:nonzero;stroke:none;stroke-width:0.12158532" />
    <path
       id="path943"
       d="m 94.002948,134.53466 c 0,0 -0.0579,-0.0746 -0.1781,-0.0826 0,0 -0.13393,0 -0.24365,0.13631 0,0 -0.0271,0.0332 -0.0475,0.0703 0,0 -0.0826,0.15103 -0.10781,0.35573 0,0 -0.004,0.0327 -0.004,0.0575 0,0 0,0.16955 0.11541,0.21325 0,0 0.029,0.0124 0.0703,0.0124 0,0 0.18618,0 0.33483,-0.12396 0,0 0.0437,-0.0352 0.0788,-0.0808 0,0 0.0142,-0.0208 0.0266,-0.0208 0,0 0.019,0 0.0252,0.0271 0,0 0,0.0228 -0.0703,0.0888 0,0 -0.17192,0.15532 -0.39895,0.15532 0,0 -0.19662,0 -0.28544,-0.15722 0,0 -0.0494,-0.085 -0.0494,-0.19234 0,0 0,-0.21088 0.16101,-0.39041 0,0 0.1591,-0.1781 0.35573,-0.19472 0,0 0.0185,-0.002 0.037,-0.002 0,0 0.1591,0 0.22132,0.0974 0,0 0.0228,0.037 0.0228,0.0803 0,0 0,0.0912 -0.0727,0.12396 0,0 -0.0204,0.009 -0.0432,0.009 0,0 -0.0622,0 -0.0746,-0.0537 0,0 -0.002,-0.009 -0.002,-0.0185 0,0 0,-0.0456 0.037,-0.0807 0,0 0.029,-0.0289 0.0912,-0.0289 z m 0,0"
       style="fill:#000000;fill-opacity:1;fill-rule:nonzero;stroke:none;stroke-width:0.12158532" />
    <path
       id="path945"
       d="m 95.383608,134.8448 v 0.57849 c 0,0 0,0.0665 -0.0413,0.0684 0,0 -0.0413,0 -0.0413,-0.0684 v -0.57849 h -0.57895 c 0,0 -0.066,0 -0.0684,-0.0413 0,0 0,-0.0413 0.0684,-0.0413 h 0.57895 v -0.57896 c 0,0 0,-0.066 0.0413,-0.0684 0,0 0.0413,0 0.0413,0.0684 v 0.57896 h 0.57658 c 0,0 0.066,0 0.0684,0.0413 0,0 0,0.0413 -0.0684,0.0413 z m 0,0"
       style="fill:#000000;fill-opacity:1;fill-rule:nonzero;stroke:none;stroke-width:0.12158532" />
    <path
       id="path947"
       d="m 97.715108,133.54488 h -0.66159 c 0,0 -0.0641,0 -0.0703,-0.0289 0,0 -10e-4,-0.006 -10e-4,-0.0124 0,0 0.0124,-0.0413 0.0722,-0.0413 h 0.69656 c 0,0 -0.0413,-0.0537 -0.0499,-0.12016 0,0 0,-0.0327 0.0289,-0.0413 0,0 0.006,-0.002 0.0124,-0.002 0,0 0.0314,0 0.0413,0.0456 0,0 0.0271,0.0784 0.085,0.11783 0,0 0.0289,0.0205 0.0289,0.0413 0,0 0,0.0228 -0.0352,0.0433 0,0 -0.0931,0.0456 -0.16338,0.13441 0,0 -0.0228,0.0271 -0.0395,0.0271 0,0 -0.0289,0 -0.039,-0.0289 0,0 -0.002,-0.006 -0.002,-0.0124 0,0 0,-0.0332 0.0974,-0.122 z m 0,0"
       style="fill:#000000;fill-opacity:1;fill-rule:nonzero;stroke:none;stroke-width:0.12158532" />
    <path
       id="path949"
       d="m 97.331358,133.90821 -0.15294,0.62217 c 0,0 0.11967,-0.12395 0.24174,-0.12395 0,0 0.15484,0 0.2313,0.14248 0,0 0.0436,0.0826 0.0436,0.18807 0,0 0,0.21943 -0.15293,0.40941 0,0 -0.14296,0.17573 -0.31441,0.19425 0,0 -0.0166,0.002 -0.0309,0.002 0,0 -0.14865,0 -0.22132,-0.13868 0,0 -0.0413,-0.0784 -0.0413,-0.18617 0,0 0,-0.0703 0.0332,-0.20851 l 0.16956,-0.67394 c 0,0 0.0289,-0.12212 0.0289,-0.12824 0,0 0,-0.0228 -0.0289,-0.0289 0,0 -0.0251,-0.006 -0.0745,-0.006 0,0 -0.0456,0 -0.0494,-0.0248 0,0 0,-0.0352 0.039,-0.0413 l 0.25219,-0.0208 c 0,0 0.0271,0 0.0271,0.0228 m -0.19425,0.78127 -0.0456,0.19046 c 0,0 -0.0332,0.13014 -0.0332,0.2085 0,0 0,0.17811 0.10777,0.2047 0,0 0.0142,0.004 0.0309,0.004 0,0 0.10974,0 0.2047,-0.14485 0,0 0.0204,-0.0309 0.039,-0.0679 0,0 0.056,-0.11832 0.0931,-0.31868 0,0 0.0124,-0.0722 0.0124,-0.11967 0,0 0,-0.16529 -0.10115,-0.18998 l -0.001,-0.002 c 0,0 -0.0124,-0.002 -0.0271,-0.002 0,0 -0.12395,0 -0.24791,0.16528 0,0 -0.0165,0.0208 -0.0309,0.0722 z m 0,0"
       style="fill:#000000;fill-opacity:1;fill-rule:nonzero;stroke:none;stroke-width:0.12158532" />
    <path
       id="path951"
       d="m 91.534198,142.24013 20.000312,5.19064"
       style="fill:none;stroke:#000000;stroke-width:0.12158532;stroke-linecap:round;stroke-linejoin:round;stroke-miterlimit:10;stroke-opacity:1" />
    <path
       id="path953"
       d="m 113.29988,147.8891 -1.87983,-0.017 0.22892,-0.88245 z m 0,0"
       style="fill:#000000;fill-opacity:1;fill-rule:evenodd;stroke:none;stroke-width:0.12158532" />
    <path
       id="path955"
       d="m 104.029,142.42061 h -0.6616 c 0,0 -0.0641,0 -0.0703,-0.0289 0,0 -0.002,-0.006 -0.002,-0.0124 0,0 0.0124,-0.0413 0.0722,-0.0413 h 0.69674 c 0,0 -0.0413,-0.0537 -0.0494,-0.12016 0,0 0,-0.0327 0.0289,-0.0413 0,0 0.006,-0.002 0.0124,-0.002 0,0 0.0309,0 0.0413,0.0456 0,0 0.0266,0.0784 0.0846,0.11783 0,0 0.0289,0.0205 0.0289,0.0413 0,0 0,0.0228 -0.0352,0.0433 0,0 -0.0931,0.0456 -0.16339,0.1344 0,0 -0.0228,0.0271 -0.039,0.0271 0,0 -0.0289,0 -0.0395,-0.0289 0,0 -0.002,-0.006 -0.002,-0.0124 0,0 0,-0.0332 0.0974,-0.122 z m 0,0"
       style="fill:#000000;fill-opacity:1;fill-rule:nonzero;stroke:none;stroke-width:0.12158532" />
    <path
       id="path957"
       d="m 103.81954,142.86895 c 0,0 0.01,-0.0703 0.0641,-0.0869 0,0 0.01,-0.004 0.0228,-0.004 0,0 0.0537,0 0.0598,0.0555 0,0 0,0.0124 -0.0147,0.0703 l -0.0741,0.28924 c 0,0 -0.0314,0.13061 -0.0456,0.18618 0,0 -0.0271,0.10729 -0.0271,0.15294 0,0 0,0.095 0.0622,0.095 0,0 0.0784,0 0.13204,-0.16528 0,0 0.01,-0.0352 0.0251,-0.0907 0,0 0.0162,-0.0352 0.0289,-0.0375 0,0 0.0247,0 0.0247,0.0208 0,0 0,0.0309 -0.0375,0.14485 0,0 -0.0124,0.0352 -0.0248,0.0598 0,0 -0.058,0.11354 -0.15293,0.11354 0,0 -0.11587,0 -0.16717,-0.0993 0,0 -0.0147,-0.0248 -0.0209,-0.0555 0,0 -0.13014,0.15483 -0.26883,0.15483 0,0 -0.15482,0 -0.22939,-0.14058 0,0 -0.0451,-0.0826 -0.0451,-0.18998 0,0 0,-0.22322 0.15484,-0.41367 0,0 0.14487,-0.17335 0.31394,-0.18998 0,0 0.0147,-0.002 0.0289,-0.002 0,0 0.12634,0 0.19046,0.13204 m -0.13441,0.53526 0.10361,-0.40513 c 0,0 0.006,-0.0309 0.006,-0.0352 0,0 0,-0.0432 -0.0375,-0.10545 0,0 -0.0456,-0.0765 -0.12586,-0.0765 0,0 -0.10778,0 -0.2047,0.14059 0,0 -0.0185,0.0271 -0.0352,0.058 0,0 -0.0598,0.12016 -0.10116,0.341 0,0 -0.0124,0.0702 -0.0124,0.11157 0,0 0,0.14059 0.0784,0.18191 0,0 0.0228,0.0124 0.0537,0.0124 0,0 0.11587,0 0.23368,-0.14676 0,0 0.0289,-0.0327 0.0395,-0.0679 v -0.002 c 0,0 0.002,-0.004 0.002,-0.006 z m 0,0"
       style="fill:#000000;fill-opacity:1;fill-rule:nonzero;stroke:none;stroke-width:0.12158532" />
    <path
       id="path959"
       d="M 113.29988,147.8891 95.675218,126.14195"
       style="fill:none;stroke:#000000;stroke-width:0.12158532;stroke-linecap:butt;stroke-linejoin:round;stroke-miterlimit:10;stroke-dasharray:1.1550605, 0.97268253;stroke-opacity:1" />
    <path
       id="path961"
       d="m 94.526808,124.7252 1.50273,1.12988 -0.70862,0.57421 z m 0,0"
       style="fill:#000000;fill-opacity:1;fill-rule:evenodd;stroke:none;stroke-width:0.12158532" />
    <path
       id="path963"
       d="m 72.761141,119.07623 20.000307,5.19113"
       style="fill:none;stroke:#000000;stroke-width:0.12158532;stroke-linecap:butt;stroke-linejoin:round;stroke-miterlimit:10;stroke-dasharray:1.1550605, 0.97268253;stroke-opacity:1" />
    <path
       id="path965"
       d="m 94.526808,124.7252 -1.87982,-0.0167 0.22892,-0.88292 z m 0,0"
       style="fill:#000000;fill-opacity:1;fill-rule:evenodd;stroke:none;stroke-width:0.12158532" />
    <path
       id="path967"
       d="m 88.809448,110.29549 9.88404,2.56517"
       style="fill:none;stroke:#000000;stroke-width:0.12158532;stroke-linecap:round;stroke-linejoin:round;stroke-miterlimit:10;stroke-opacity:1" />
    <path
       id="path969"
       d="m 100.45885,113.31897 -1.879822,-0.017 0.22892,-0.88245 z m 0,0"
       style="fill:#000000;fill-opacity:1;fill-rule:evenodd;stroke:none;stroke-width:0.12158532" />
    <path
       id="path971"
       d="m 89.925088,114.51678 h -0.66159 c 0,0 -0.0641,0 -0.0703,-0.0289 0,0 -0.002,-0.006 -0.002,-0.0124 0,0 0.0123,-0.0413 0.0722,-0.0413 h 0.69674 c 0,0 -0.0413,-0.0537 -0.0494,-0.12017 0,0 0,-0.0327 0.0285,-0.0413 0,0 0.007,-0.001 0.0128,-0.001 0,0 0.0309,0 0.0413,0.0456 0,0 0.0266,0.0784 0.0845,0.11783 0,0 0.029,0.0205 0.029,0.0413 0,0 0,0.0228 -0.0352,0.0432 0,0 -0.0931,0.0456 -0.16338,0.13441 0,0 -0.0228,0.0271 -0.0389,0.0271 0,0 -0.029,0 -0.0394,-0.0289 0,0 -0.002,-0.006 -0.002,-0.0124 0,0 0,-0.0332 0.0974,-0.122 z m 0,0"
       style="fill:#000000;fill-opacity:1;fill-rule:nonzero;stroke:none;stroke-width:0.12158532" />
    <path
       id="path973"
       d="m 89.565088,115.631 c 0,0 -0.10734,0.13821 -0.24602,0.13821 0,0 -0.16718,0 -0.22702,-0.12164 0,0 -0.0271,-0.0542 -0.0271,-0.12634 0,0 0,-0.11157 0.10972,-0.40512 0,0 0.004,-0.0142 0.0104,-0.0289 0,0 0.0351,-0.0888 0.0351,-0.14057 0,0 0,-0.0679 -0.0518,-0.0679 0,0 -0.11588,0 -0.18807,0.19615 0,0 -0.002,0 -0.002,0.001 v 0.002 c 0,0 -0.01,0.0266 -0.0185,0.0556 0,0 -0.0228,0.0352 -0.0328,0.0375 0,0 -0.0252,0 -0.0252,-0.0209 0,0 0,-0.037 0.0437,-0.13013 0,0 0.0907,-0.18809 0.2294,-0.18809 0,0 0.10923,0 0.15293,0.0931 0,0 0.0166,0.0352 0.0166,0.0765 0,0 0,0.0413 -0.0352,0.13014 0,0 -0.11161,0.29541 -0.11161,0.42174 0,0 0,0.16956 0.12823,0.16956 0,0 0.13014,0 0.21895,-0.14295 0,0 0.0123,-0.0185 0.0166,-0.0309 0,0 0.0451,-0.2047 0.15483,-0.62218 0,0 0.0166,-0.0722 0.0807,-0.0722 0,0 0.0518,0.01 0.0598,0.0556 0,0 0,-0.004 -0.0309,0.13868 0,0 -0.029,0.10545 -0.0351,0.14059 l -0.058,0.22322 c 0,0 -0.0413,0.17953 -0.0413,0.21467 0,0 0,0.0955 0.0641,0.0955 0,0 0.0869,0 0.14249,-0.20707 0,0 0.006,-0.0205 0.0123,-0.0494 0,0 0.0166,-0.0352 0.029,-0.037 0,0 0.0247,0 0.0247,0.0204 0,0 0,0.0309 -0.037,0.14485 0,0 -0.0123,0.0352 -0.0247,0.0598 0,0 -0.056,0.11354 -0.15293,0.11354 0,0 -0.11778,0 -0.16765,-0.0993 0,0 -0.0104,-0.0185 -0.0166,-0.039 z m 0,0"
       style="fill:#000000;fill-opacity:1;fill-rule:nonzero;stroke:none;stroke-width:0.12158532" />
    <path
       id="path975"
       d="m 92.019118,115.07057 h -1.2339 c 0,0 -0.066,0 -0.0703,-0.0413 0,0 0,-0.0413 0.0684,-0.0413 h 1.23817 c 0,0 0.066,0 0.0679,0.0413 0,0 0,0.0413 -0.0703,0.0413 m 0.002,0.40132 h -1.23817 c 0,0 -0.0665,0 -0.0684,-0.0413 0,0 0,-0.0413 0.0703,-0.0413 h 1.2339 c 0,0 0.066,0 0.0703,0.0413 0,0 0,0.0413 -0.0679,0.0413 z m 0,0"
       style="fill:#000000;fill-opacity:1;fill-rule:nonzero;stroke:none;stroke-width:0.12158532" />
    <path
       id="path977"
       d="m 95.069678,113.11855 h -0.66113 c 0,0 -0.0641,0 -0.0703,-0.0289 0,0 -0.002,-0.006 -0.002,-0.0124 0,0 0.0124,-0.0413 0.0727,-0.0413 h 0.69627 c 0,0 -0.0413,-0.0537 -0.0494,-0.12016 0,0 0,-0.0327 0.0289,-0.0413 0,0 0.006,-0.002 0.0124,-0.002 0,0 0.0309,0 0.0413,0.0456 0,0 0.0266,0.0783 0.0846,0.11783 0,0 0.0289,0.0205 0.0289,0.0413 0,0 0,0.0228 -0.0352,0.0433 0,0 -0.0931,0.0456 -0.16338,0.13441 0,0 -0.0223,0.0271 -0.039,0.0271 0,0 -0.0289,0 -0.0395,-0.0289 0,0 -0.002,-0.006 -0.002,-0.0124 0,0 0,-0.0332 0.0969,-0.122 z m 0,0"
       style="fill:#000000;fill-opacity:1;fill-rule:nonzero;stroke:none;stroke-width:0.12158532" />
    <path
       id="path979"
       d="m 94.860228,113.56689 c 0,0 0.01,-0.0703 0.0641,-0.0869 0,0 0.01,-0.004 0.0228,-0.004 0,0 0.0537,0 0.0598,0.0555 0,0 0,0.0124 -0.0142,0.0703 l -0.0746,0.28925 c 0,0 -0.0309,0.13061 -0.0456,0.18617 0,0 -0.0266,0.10729 -0.0266,0.15294 0,0 0,0.095 0.0618,0.095 0,0 0.0788,0 0.13251,-0.16528 0,0 0.01,-0.0352 0.0248,-0.0907 0,0 0.0165,-0.0352 0.0289,-0.0375 0,0 0.0248,0 0.0248,0.0208 0,0 0,0.0309 -0.037,0.14486 0,0 -0.0124,0.0352 -0.0251,0.0598 0,0 -0.0575,0.11354 -0.15294,0.11354 0,0 -0.11538,0 -0.16718,-0.0993 0,0 -0.0147,-0.0248 -0.0208,-0.0555 0,0 -0.13013,0.15483 -0.26834,0.15483 0,0 -0.1553,0 -0.2294,-0.14058 0,0 -0.0456,-0.0826 -0.0456,-0.18998 0,0 0,-0.22323 0.15483,-0.41367 0,0 0.14486,-0.17336 0.31441,-0.18999 0,0 0.0142,-0.002 0.0289,-0.002 0,0 0.12586,0 0.18997,0.13203 m -0.13441,0.53527 0.10349,-0.40513 c 0,0 0.006,-0.0309 0.006,-0.0352 0,0 0,-0.0432 -0.0375,-0.10544 0,0 -0.0451,-0.0765 -0.12586,-0.0765 0,0 -0.10729,0 -0.20469,0.14058 0,0 -0.0185,0.0271 -0.0352,0.058 0,0 -0.0598,0.12016 -0.10116,0.34101 0,0 -0.0124,0.0703 -0.0124,0.11157 0,0 0,0.14058 0.0784,0.1819 0,0 0.0228,0.0124 0.0537,0.0124 0,0 0.11587,0 0.23368,-0.14675 0,0 0.0289,-0.0327 0.0395,-0.0679 v -0.002 c 0,0 0.002,-0.004 0.002,-0.006 z m 0,0"
       style="fill:#000000;fill-opacity:1;fill-rule:nonzero;stroke:none;stroke-width:0.12158532" />
    <path
       id="path981"
       d="m 92.926258,115.18835 h 3.28898 v 0.0826 h -3.28898 v -0.0826"
       style="fill:#000000;fill-opacity:1;fill-rule:nonzero;stroke:none;stroke-width:0.12158532" />
    <path
       id="path983"
       d="m 93.281988,115.68038 v 1.93446 c 0,0 0,0.0622 -0.0413,0.0665 0,0 -0.0413,0 -0.0413,-0.0746 v -1.91829 c 0,0 0,-0.0722 0.0413,-0.0741 0,0 0.0413,0 0.0413,0.066 m 0.40275,0.009 v 1.91829 c 0,0 0,0.0722 -0.0413,0.0746 0,0 -0.0413,0 -0.0413,-0.0665 v -1.93444 c 0,0 0,-0.0622 0.0413,-0.066 0,0 0.0413,0 0.0413,0.0741 z m 0,0"
       style="fill:#000000;fill-opacity:1;fill-rule:nonzero;stroke:none;stroke-width:0.12158532" />
    <path
       id="path985"
       d="m 95.069678,115.93449 h -0.66113 c 0,0 -0.0641,0 -0.0703,-0.0289 0,0 -0.002,-0.006 -0.002,-0.0124 0,0 0.0124,-0.0413 0.0727,-0.0413 h 0.69627 c 0,0 -0.0413,-0.0537 -0.0494,-0.11967 0,0 0,-0.0332 0.0289,-0.0413 0,0 0.006,-0.002 0.0124,-0.002 0,0 0.0309,0 0.0413,0.0456 0,0 0.0266,0.0784 0.0846,0.11783 0,0 0.0289,0.0208 0.0289,0.0413 0,0 0,0.0228 -0.0352,0.0436 0,0 -0.0931,0.0451 -0.16338,0.13393 0,0 -0.0223,0.0271 -0.039,0.0271 0,0 -0.0289,0 -0.0395,-0.0289 0,0 -0.002,-0.006 -0.002,-0.0124 0,0 0,-0.0332 0.0969,-0.122 z m 0,0"
       style="fill:#000000;fill-opacity:1;fill-rule:nonzero;stroke:none;stroke-width:0.12158532" />
    <path
       id="path987"
       d="m 94.860228,116.3833 c 0,0 0.01,-0.0703 0.0641,-0.0869 0,0 0.01,-0.004 0.0228,-0.004 0,0 0.0537,0 0.0598,0.056 0,0 0,0.0124 -0.0142,0.0703 l -0.0746,0.28924 c 0,0 -0.0309,0.13013 -0.0456,0.18618 0,0 -0.0266,0.10729 -0.0266,0.15293 0,0 0,0.095 0.0618,0.095 0,0 0.0788,0 0.13251,-0.16527 0,0 0.01,-0.0352 0.0248,-0.0912 0,0 0.0165,-0.0352 0.0289,-0.037 0,0 0.0248,0 0.0248,0.0204 0,0 0,0.0314 -0.037,0.14487 0,0 -0.0124,0.0352 -0.0251,0.0598 0,0 -0.0575,0.11403 -0.15294,0.11403 0,0 -0.11538,0 -0.16718,-0.0993 0,0 -0.0147,-0.0251 -0.0208,-0.056 0,0 -0.13013,0.15532 -0.26834,0.15532 0,0 -0.1553,0 -0.2294,-0.14059 0,0 -0.0456,-0.0826 -0.0456,-0.19046 0,0 0,-0.22321 0.15483,-0.41319 0,0 0.14486,-0.17383 0.31441,-0.19045 0,0 0.0142,-0.002 0.0289,-0.002 0,0 0.12586,0 0.18997,0.13251 m -0.13441,0.53527 0.10349,-0.40513 c 0,0 0.006,-0.0309 0.006,-0.0352 0,0 0,-0.0436 -0.0375,-0.10544 0,0 -0.0451,-0.0765 -0.12586,-0.0765 0,0 -0.10729,0 -0.20469,0.14059 0,0 -0.0185,0.0266 -0.0352,0.0579 0,0 -0.0598,0.11967 -0.10116,0.34101 0,0 -0.0124,0.0703 -0.0124,0.11157 0,0 0,0.14059 0.0784,0.1819 0,0 0.0228,0.0124 0.0537,0.0124 0,0 0.11587,0 0.23368,-0.14675 0,0 0.0289,-0.0332 0.0395,-0.0684 v -10e-4 c 0,0 0.002,-0.004 0.002,-0.006 z m 0,0"
       style="fill:#000000;fill-opacity:1;fill-rule:nonzero;stroke:none;stroke-width:0.12158532" />
    <path
       id="path989"
       d="m 95.537488,115.68038 v 1.93446 c 0,0 0,0.0622 -0.0413,0.0665 0,0 -0.0413,0 -0.0413,-0.0746 v -1.91829 c 0,0 0,-0.0722 0.0413,-0.0741 0,0 0.0413,0 0.0413,0.066 m 0.40275,0.009 v 1.91829 c 0,0 0,0.0722 -0.0413,0.0746 0,0 -0.0413,0 -0.0413,-0.0665 v -1.93444 c 0,0 0,-0.0622 0.0413,-0.066 0,0 0.0413,0 0.0413,0.0741 z m 0,0"
       style="fill:#000000;fill-opacity:1;fill-rule:nonzero;stroke:none;stroke-width:0.12158532" />
    <path
       id="path991"
       d="m 68.771148,142.79867 c 0,0.20137 -0.16338,0.36475 -0.364756,0.36475 -0.201376,0 -0.364756,-0.16338 -0.364756,-0.36475 0,-0.20186 0.16338,-0.36476 0.364756,-0.36476 0.201376,0 0.364756,0.1629 0.364756,0.36476 z m 0,0"
       style="fill:#ff0030;fill-opacity:1;fill-rule:nonzero;stroke:#000000;stroke-width:0.12158532;stroke-linecap:round;stroke-linejoin:round;stroke-miterlimit:10;stroke-opacity:1" />
    <path
       id="path993"
       d="m 90.536818,148.44716 c 0,0.20185 -0.16338,0.36475 -0.36476,0.36475 -0.20184,0 -0.36475,-0.1629 -0.36475,-0.36475 0,-0.20138 0.16291,-0.36476 0.36475,-0.36476 0.20138,0 0.36476,0.16338 0.36476,0.36476 z m 0,0"
       style="fill:#ff0030;fill-opacity:1;fill-rule:nonzero;stroke:#000000;stroke-width:0.12158532;stroke-linecap:round;stroke-linejoin:round;stroke-miterlimit:10;stroke-opacity:1" />
    <path
       id="path995"
       d="m 91.898958,142.24013 c 0,0.20138 -0.16291,0.36476 -0.36476,0.36476 -0.20137,0 -0.36476,-0.16338 -0.36476,-0.36476 0,-0.20138 0.16339,-0.36476 0.36476,-0.36476 0.20185,0 0.36476,0.16338 0.36476,0.36476 z m 0,0"
       style="fill:#ff0030;fill-opacity:1;fill-rule:nonzero;stroke:#000000;stroke-width:0.12158532;stroke-linecap:round;stroke-linejoin:round;stroke-miterlimit:10;stroke-opacity:1" />
    <path
       id="path997"
       d="m 73.125897,119.07623 c 0,0.20185 -0.163381,0.36475 -0.364756,0.36475 -0.201376,0 -0.364755,-0.1629 -0.364755,-0.36475 0,-0.20138 0.163379,-0.36476 0.364755,-0.36476 0.201375,0 0.364756,0.16338 0.364756,0.36476 z m 0,0"
       style="fill:#ff0030;fill-opacity:1;fill-rule:nonzero;stroke:#000000;stroke-width:0.12158532;stroke-linecap:round;stroke-linejoin:round;stroke-miterlimit:10;stroke-opacity:1" />
    <path
       id="path999"
       d="m 68.548874,136.17987 c 0,0.20137 -0.16338,0.36475 -0.364756,0.36475 -0.201375,0 -0.364755,-0.16338 -0.364755,-0.36475 0,-0.20138 0.16338,-0.36476 0.364755,-0.36476 0.201376,0 0.364756,0.16338 0.364756,0.36476 z m 0,0"
       style="fill:#424242;fill-opacity:1;fill-rule:nonzero;stroke:#000000;stroke-width:0.12158532;stroke-linecap:round;stroke-linejoin:round;stroke-miterlimit:10;stroke-opacity:1" />
    <path
       id="path1001"
       d="m 115.5169,135.73009 c 0,0.20138 -0.16338,0.36476 -0.36475,0.36476 -0.20138,0 -0.36476,-0.16338 -0.36476,-0.36476 0,-0.20137 0.16338,-0.36475 0.36476,-0.36475 0.20137,0 0.36475,0.16338 0.36475,0.36475 z m 0,0"
       style="fill:#ff0000;fill-opacity:1;fill-rule:nonzero;stroke:#000000;stroke-width:0.12158532;stroke-linecap:round;stroke-linejoin:round;stroke-miterlimit:10;stroke-opacity:1" />
    <path
       id="path1003"
       d="m 145.19084,119.53075 c 0,0.20138 -0.16338,0.36476 -0.36475,0.36476 -0.20138,0 -0.36476,-0.16338 -0.36476,-0.36476 0,-0.20138 0.16338,-0.36475 0.36476,-0.36475 0.20137,0 0.36475,0.16337 0.36475,0.36475 z m 0,0"
       style="fill:#ff0000;fill-opacity:1;fill-rule:nonzero;stroke:#000000;stroke-width:0.12158532;stroke-linecap:round;stroke-linejoin:round;stroke-miterlimit:10;stroke-opacity:1" />
    <path
       id="path1005"
       d="m 145.19084,135.73009 c 0,0.20138 -0.16338,0.36476 -0.36475,0.36476 -0.20138,0 -0.36476,-0.16338 -0.36476,-0.36476 0,-0.20137 0.16338,-0.36475 0.36476,-0.36475 0.20137,0 0.36475,0.16338 0.36475,0.36475 z m 0,0"
       style="fill:#424242;fill-opacity:1;fill-rule:nonzero;stroke:#000000;stroke-width:0.12158532;stroke-linecap:round;stroke-linejoin:round;stroke-miterlimit:10;stroke-opacity:1" />
    <path
       id="path1007"
       d="m 113.66463,147.8891 c 0,0.20137 -0.16339,0.36475 -0.36475,0.36475 -0.20138,0 -0.36476,-0.16338 -0.36476,-0.36475 0,-0.20138 0.16338,-0.36476 0.36476,-0.36476 0.20136,0 0.36475,0.16338 0.36475,0.36476 z m 0,0"
       style="fill:#000000;fill-opacity:1;fill-rule:nonzero;stroke:#000000;stroke-width:0.12158532;stroke-linecap:round;stroke-linejoin:round;stroke-miterlimit:10;stroke-opacity:1" />
    <path
       id="path1009"
       d="m 94.891568,124.7252 c 0,0.20137 -0.16338,0.36475 -0.36476,0.36475 -0.20137,0 -0.36475,-0.16338 -0.36475,-0.36475 0,-0.20138 0.16338,-0.36476 0.36475,-0.36476 0.20138,0 0.36476,0.16338 0.36476,0.36476 z m 0,0"
       style="fill:#000000;fill-opacity:1;fill-rule:nonzero;stroke:#000000;stroke-width:0.12158532;stroke-linecap:round;stroke-linejoin:round;stroke-miterlimit:10;stroke-opacity:1" />
    <path
       id="path1011"
       d="m 95.013148,124.7252 c 0,0.26881 -0.21799,0.48634 -0.48634,0.48634 -0.26882,0 -0.48634,-0.21753 -0.48634,-0.48634 0,-0.26835 0.21752,-0.48634 0.48634,-0.48634 0.26835,0 0.48634,0.21799 0.48634,0.48634 z m 0,0"
       style="fill:#ff0030;fill-opacity:1;fill-rule:nonzero;stroke:#000000;stroke-width:0.12158532;stroke-linecap:round;stroke-linejoin:round;stroke-miterlimit:10;stroke-opacity:1" />
    <path
       id="path1013"
       d="m 89.174208,110.29549 c 0,0.20137 -0.16338,0.36476 -0.36476,0.36476 -0.20185,0 -0.36475,-0.16339 -0.36475,-0.36476 0,-0.20137 0.1629,-0.36475 0.36475,-0.36475 0.20138,0 0.36476,0.16338 0.36476,0.36475 z m 0,0"
       style="fill:#0000ff;fill-opacity:1;fill-rule:nonzero;stroke:#000000;stroke-width:0.12158532;stroke-linecap:round;stroke-linejoin:round;stroke-miterlimit:10;stroke-opacity:1" />
    <path
       id="path1015"
       d="m 145.47391,125.39487 h 9.1189 v 3.89072 h -9.1189 z m 0,0"
       style="fill:#ffffff;fill-opacity:1;fill-rule:nonzero;stroke:none;stroke-width:0.12158532" />
    <path
       id="path1017"
       d="m 146.68074,126.31197 v 1.93493 c 0,0 0,0.0618 -0.0413,0.066 0,0 -0.0418,0 -0.0418,-0.0746 v -1.91781 c 0,0 0,-0.0727 0.0418,-0.0746 0,0 0.0413,0 0.0413,0.066 m 0.40276,0.009 v 1.91781 c 0,0 0,0.0727 -0.0413,0.0746 0,0 -0.0413,0 -0.0413,-0.0661 v -1.93492 c 0,0 0,-0.0617 0.0413,-0.066 0,0 0.0413,0 0.0413,0.0746 z m 0,0"
       style="fill:#000000;fill-opacity:1;fill-rule:nonzero;stroke:none;stroke-width:0.12158532" />
    <path
       id="path1019"
       d="m 148.46842,126.53758 h -0.66158 c 0,0 -0.0641,0 -0.0703,-0.0289 0,0 -0.002,-0.006 -0.002,-0.0124 0,0 0.0124,-0.0413 0.0722,-0.0413 h 0.69673 c 0,0 -0.0413,-0.0537 -0.0494,-0.11967 0,0 0,-0.0332 0.0289,-0.0413 0,0 0.006,-0.002 0.0124,-0.002 0,0 0.0309,0 0.0413,0.0456 0,0 0.0266,0.0784 0.0846,0.11783 0,0 0.0289,0.0208 0.0289,0.0413 0,0 0,0.0228 -0.0352,0.0432 0,0 -0.0931,0.0456 -0.16338,0.13441 0,0 -0.0228,0.0271 -0.039,0.0271 0,0 -0.0289,0 -0.0395,-0.0289 0,0 -0.002,-0.006 -0.002,-0.0124 0,0 0,-0.0332 0.0974,-0.122 z m 0,0"
       style="fill:#000000;fill-opacity:1;fill-rule:nonzero;stroke:none;stroke-width:0.12158532" />
    <path
       id="path1021"
       d="m 148.36204,127.1987 v 0.59748 h -0.15483 v -0.0746 c 0,0 -0.12587,0.0974 -0.34292,0.0974 0,0 -0.12016,0 -0.17809,-0.0836 0,0 -0.0575,-0.0841 -0.0575,-0.17288 0,0 0,-0.13013 0.16195,-0.19948 0,0 0.16244,-0.0694 0.41036,-0.0732 v -0.0888 c 0,0 0,-0.10974 -0.0517,-0.17289 0,0 -0.0517,-0.0626 -0.12824,-0.0626 0,0 -0.16719,0 -0.31204,0.10299 l -0.0124,-0.13629 c 0,0 0.15531,-0.0888 0.32438,-0.0888 0,0 0.14486,0 0.24318,0.10018 0,0 0.0978,0.10017 0.0978,0.25505 m -0.161,0.32486 v -0.12824 c 0,0 -0.42365,0.0205 -0.42365,0.16338 0,0 0,0.0618 0.057,0.0978 0,0 0.0565,0.036 0.13536,0.036 0,0 0.0969,0 0.16101,-0.039 0,0 0.0703,-0.0395 0.0703,-0.13013 z m 0,0"
       style="fill:#000000;fill-opacity:1;fill-rule:nonzero;stroke:none;stroke-width:0.12158532" />
    <path
       id="path1023"
       d="m 148.88638,126.31197 v 1.93493 c 0,0 0,0.0618 -0.0413,0.066 0,0 -0.0413,0 -0.0413,-0.0746 v -1.91781 c 0,0 0,-0.0727 0.0413,-0.0746 0,0 0.0413,0 0.0413,0.066 m 0.40323,0.009 v 1.91781 c 0,0 0,0.0727 -0.0413,0.0746 0,0 -0.0413,0 -0.0413,-0.0661 v -1.93492 c 0,0 0,-0.0617 0.0413,-0.066 0,0 0.0413,0 0.0413,0.0746 z m 0,0"
       style="fill:#000000;fill-opacity:1;fill-rule:nonzero;stroke:none;stroke-width:0.12158532" />
    <path
       id="path1025"
       d="m 150.61802,126.90945 -0.0251,0.13441 c 0,0 -0.13204,-0.0784 -0.29352,-0.0784 0,0 -0.17573,0 -0.17573,0.12777 0,0 0,0.0289 0.0124,0.0517 0,0 0.0129,0.0228 0.0281,0.036 0,0 0.0157,0.0137 0.0475,0.0251 0,0 0.0322,0.011 0.0551,0.0175 0,0 0.0228,0.006 0.066,0.0142 0,0 0.0888,0.0167 0.13632,0.0352 0,0 0.0475,0.0185 0.10349,0.0684 l 0.01,0.0124 c 0,0 0.01,0.01 0.0205,0.0256 0,0 0.01,0.0157 0.0228,0.037 0,0 0.0124,0.0218 0.0195,0.0527 0,0 0.007,0.0314 0.007,0.0622 0,0 0,0.14486 -0.0988,0.22133 0,0 -0.0893,0.066 -0.23986,0.066 0,0 -0.16528,0 -0.34718,-0.0912 l 0.0248,-0.14058 c 0,0 0.15294,0.10164 0.32011,0.10164 0,0 0.19425,0 0.19425,-0.14296 0,0 0,-0.0309 -0.0142,-0.0555 0,0 -0.0142,-0.0246 -0.0318,-0.0395 0,0 -0.0175,-0.0142 -0.0489,-0.0266 0,0 -0.0309,-0.0124 -0.0494,-0.0165 0,0 -0.0185,-0.004 -0.0499,-0.011 0,0 -0.0703,-0.0142 -0.0969,-0.0205 0,0 -0.0271,-0.006 -0.0613,-0.02 0,0 -0.0337,-0.0134 -0.0651,-0.0361 0,0 -0.11158,-0.0846 -0.11158,-0.2066 0,0 0,-0.0765 0.0323,-0.13108 0,0 0.0318,-0.0551 0.0722,-0.0807 0,0 0.0403,-0.0261 0.0974,-0.0403 0,0 0.0565,-0.0147 0.0836,-0.0166 0,0 0.0271,-0.002 0.058,-0.002 0,0 0.15483,0 0.29779,0.066 z m 0,0"
       style="fill:#000000;fill-opacity:1;fill-rule:nonzero;stroke:none;stroke-width:0.12158532" />
    <path
       id="path1027"
       d="m 151.03787,126.39083 v 0.18379 h -0.18381 v -0.18379 h 0.18381 m -0.0142,0.48776 v 0.91759 h -0.15484 v -0.91759 z m 0,0"
       style="fill:#000000;fill-opacity:1;fill-rule:nonzero;stroke:none;stroke-width:0.12158532" />
    <path
       id="path1029"
       d="m 152.09414,127.18017 v 0.61601 h -0.16148 v -0.60128 c 0,0 0,-0.0289 -0.001,-0.0489 0,0 -0.001,-0.0195 -0.0124,-0.0537 0,0 -0.011,-0.0342 -0.0309,-0.0555 0,0 -0.02,-0.0218 -0.0598,-0.0385 0,0 -0.0403,-0.0166 -0.0964,-0.0166 0,0 -0.10729,0 -0.15816,0.0931 0,0 -0.0504,0.0931 -0.0504,0.21514 v 0.5063 h -0.16147 v -0.92993 h 0.14913 v 0.14675 c 0,0 0.11783,-0.15721 0.29968,-0.15721 0,0 0.28306,0 0.28306,0.32438 z m 0,0"
       style="fill:#000000;fill-opacity:1;fill-rule:nonzero;stroke:none;stroke-width:0.12158532" />
    <path
       id="path1031"
       d="m 153.54794,126.7627 c 0,0 0,0.31632 -0.16148,0.6407 0,0 -0.14439,0.28924 -0.32012,0.38233 0,0 -0.0641,0.0332 -0.12396,0.0332 0,0 -0.16955,0 -0.2275,-0.23178 0,0 -0.0208,-0.0864 -0.0208,-0.19187 0,0 0,-0.32487 0.16576,-0.65115 0,0 0.14438,-0.28306 0.3201,-0.37425 0,0 0.0622,-0.0309 0.11967,-0.0309 0,0 0.18001,0 0.23178,0.26265 0,0 0.0167,0.0784 0.0167,0.161 m -0.63452,0.28307 h 0.43172 c 0,0 0.066,-0.27262 0.066,-0.4113 0,0 0,-0.23367 -0.0969,-0.24792 0,0 -0.009,-0.002 -0.0165,-0.002 0,0 -0.10545,0 -0.22513,0.21705 0,0 -0.0788,0.13821 -0.1572,0.43362 0,0 0,0.006 -0.001,0.011 m 0.41321,0.0665 h -0.42983 c 0,0 -0.066,0.24981 -0.066,0.40892 0,0 0,0.24793 0.11158,0.25219 0,0 0.11538,0 0.23938,-0.24174 0,0 0.0807,-0.15293 0.14485,-0.41937 z m 0,0"
       style="fill:#000000;fill-opacity:1;fill-rule:nonzero;stroke:none;stroke-width:0.12158532" />
    <path
       id="path1033"
       d="m 129.42466,136.94548 h 9.48365 v 3.89072 h -9.48365 z m 0,0"
       style="fill:#ffffff;fill-opacity:1;fill-rule:nonzero;stroke:none;stroke-width:0.12158532" />
    <path
       id="path1035"
       d="m 130.63147,137.86258 v 1.93492 c 0,0 0,0.0618 -0.0418,0.0661 0,0 -0.0413,0 -0.0413,-0.0746 v -1.91783 c 0,0 0,-0.0727 0.0413,-0.0745 0,0 0.0418,0 0.0418,0.066 m 0.40276,0.009 v 1.91783 c 0,0 0,0.0727 -0.0413,0.0746 0,0 -0.0413,0 -0.0413,-0.066 v -1.93491 c 0,0 0,-0.0618 0.0413,-0.066 0,0 0.0413,0 0.0413,0.0746 z m 0,0"
       style="fill:#000000;fill-opacity:1;fill-rule:nonzero;stroke:none;stroke-width:0.12158532" />
    <path
       id="path1037"
       d="m 132.41917,138.08818 h -0.66159 c 0,0 -0.0641,0 -0.0703,-0.0289 0,0 -0.002,-0.006 -0.002,-0.0124 0,0 0.0124,-0.0413 0.0722,-0.0413 h 0.69674 c 0,0 -0.0413,-0.0537 -0.0494,-0.11967 0,0 0,-0.0332 0.0284,-0.0413 0,0 0.006,-0.002 0.0129,-0.002 0,0 0.0309,0 0.0413,0.0456 0,0 0.0266,0.0784 0.0846,0.11783 0,0 0.0289,0.0208 0.0289,0.0413 0,0 0,0.0228 -0.0352,0.0433 0,0 -0.0931,0.0456 -0.16338,0.13441 0,0 -0.0228,0.0271 -0.039,0.0271 0,0 -0.0289,0 -0.0395,-0.0289 0,0 -0.002,-0.006 -0.002,-0.0124 0,0 0,-0.0332 0.0974,-0.12199 z m 0,0"
       style="fill:#000000;fill-opacity:1;fill-rule:nonzero;stroke:none;stroke-width:0.12158532" />
    <path
       id="path1039"
       d="m 132.31326,138.74931 v 0.59748 h -0.15532 v -0.0745 c 0,0 -0.12586,0.0974 -0.34291,0.0974 0,0 -0.12016,0 -0.17809,-0.0836 0,0 -0.0575,-0.0841 -0.0575,-0.17287 0,0 0,-0.13014 0.16196,-0.19948 0,0 0.16243,-0.0693 0.41035,-0.0732 v -0.0888 c 0,0 0,-0.10974 -0.0517,-0.17287 0,0 -0.0517,-0.0631 -0.12824,-0.0631 0,0 -0.16719,0 -0.31204,0.10349 l -0.0124,-0.13631 c 0,0 0.15531,-0.0888 0.32439,-0.0888 0,0 0.14485,0 0.24316,0.10017 0,0 0.0983,0.10018 0.0983,0.25505 m -0.16147,0.32485 v -0.12823 c 0,0 -0.42365,0.0205 -0.42365,0.16338 0,0 0,0.0618 0.057,0.0978 0,0 0.0565,0.036 0.13536,0.036 0,0 0.0969,0 0.16101,-0.039 0,0 0.0703,-0.0395 0.0703,-0.13014 z m 0,0"
       style="fill:#000000;fill-opacity:1;fill-rule:nonzero;stroke:none;stroke-width:0.12158532" />
    <path
       id="path1041"
       d="m 132.83711,137.86258 v 1.93492 c 0,0 0,0.0618 -0.0413,0.0661 0,0 -0.0413,0 -0.0413,-0.0746 v -1.91783 c 0,0 0,-0.0727 0.0413,-0.0745 0,0 0.0413,0 0.0413,0.066 m 0.40322,0.009 v 1.91783 c 0,0 0,0.0727 -0.0413,0.0746 0,0 -0.0413,0 -0.0413,-0.066 v -1.93491 c 0,0 0,-0.0618 0.0413,-0.066 0,0 0.0413,0 0.0413,0.0746 z m 0,0"
       style="fill:#000000;fill-opacity:1;fill-rule:nonzero;stroke:none;stroke-width:0.12158532" />
    <path
       id="path1043"
       d="m 134.70697,138.48286 -0.0248,0.1344 c 0,0 -0.0826,-0.0537 -0.14486,-0.0727 0,0 -0.0618,-0.0185 -0.14676,-0.0185 0,0 -0.103,0 -0.17241,0.058 0,0 -0.0694,0.058 -0.0964,0.13535 0,0 -0.0266,0.0774 -0.0266,0.16624 0,0 0,0.1534 0.0793,0.25219 0,0 0.0798,0.0993 0.20802,0.0993 0,0 0.17953,0 0.32249,-0.11157 l 0.0124,0.13868 c 0,0 -0.15292,0.10545 -0.33721,0.10545 0,0 -0.18997,0 -0.3182,-0.14249 0,0 -0.12823,-0.14295 -0.12823,-0.33911 0,0 0,-0.19662 0.12538,-0.34528 0,0 0.12491,-0.14865 0.32961,-0.14865 0,0 0.095,0 0.161,0.0185 0,0 0.0665,0.0185 0.15721,0.0703 z m 0,0"
       style="fill:#000000;fill-opacity:1;fill-rule:nonzero;stroke:none;stroke-width:0.12158532" />
    <path
       id="path1045"
       d="m 135.74756,138.89226 c 0,0 0,0.20042 -0.13346,0.33863 0,0 -0.13298,0.13869 -0.32106,0.13869 0,0 -0.18427,0 -0.31868,-0.13773 0,0 -0.13394,-0.13727 -0.13394,-0.33959 0,0 0,-0.2047 0.13204,-0.35146 0,0 0.13251,-0.14675 0.32248,-0.14675 0,0 0.18618,0 0.31916,0.1458 0,0 0.13346,0.14533 0.13346,0.35241 m -0.45452,0.34481 c 0,0 0.12164,0 0.20755,-0.0959 0,0 0.086,-0.0959 0.086,-0.26976 0,0 0,-0.17146 -0.0869,-0.26123 0,0 -0.0869,-0.0902 -0.2066,-0.0902 0,0 -0.11587,0 -0.20375,0.0888 0,0 -0.0879,0.0888 -0.0879,0.26265 0,0 0,0.17573 0.0869,0.27072 0,0 0.0869,0.095 0.2047,0.095 z m 0,0"
       style="fill:#000000;fill-opacity:1;fill-rule:nonzero;stroke:none;stroke-width:0.12158532" />
    <path
       id="path1047"
       d="m 136.52077,138.46006 -0.0247,0.13441 c 0,0 -0.13251,-0.0788 -0.29351,-0.0788 0,0 -0.17573,0 -0.17573,0.12823 0,0 0,0.0289 0.0124,0.0517 0,0 0.0124,0.0228 0.0276,0.0361 0,0 0.0157,0.0137 0.0479,0.0248 0,0 0.0318,0.011 0.0547,0.0175 0,0 0.0228,0.006 0.066,0.0147 0,0 0.0888,0.0165 0.1363,0.0352 0,0 0.0475,0.0185 0.10349,0.0684 l 0.01,0.0124 c 0,0 0.01,0.01 0.0205,0.0256 0,0 0.01,0.0157 0.0228,0.037 0,0 0.0124,0.0218 0.0195,0.0527 0,0 0.007,0.0314 0.007,0.0622 0,0 0,0.14486 -0.0993,0.22132 0,0 -0.0888,0.0661 -0.23986,0.0661 0,0 -0.16528,0 -0.34718,-0.0912 l 0.0248,-0.14057 c 0,0 0.15294,0.10164 0.32058,0.10164 0,0 0.19426,0 0.19426,-0.14295 0,0 0,-0.0309 -0.0147,-0.0556 0,0 -0.0142,-0.0246 -0.0318,-0.0395 0,0 -0.0175,-0.0142 -0.0484,-0.0266 0,0 -0.0314,-0.0124 -0.0499,-0.0167 0,0 -0.0185,-0.004 -0.0494,-0.011 0,0 -0.0703,-0.0142 -0.0974,-0.0205 0,0 -0.0266,-0.006 -0.0608,-0.02 0,0 -0.0342,-0.0132 -0.0651,-0.036 0,0 -0.11157,-0.0846 -0.11157,-0.2066 0,0 0,-0.0765 0.0318,-0.13155 0,0 0.0323,-0.0546 0.0722,-0.0803 0,0 0.0403,-0.0261 0.0974,-0.0403 0,0 0.057,-0.0147 0.0836,-0.0167 0,0 0.0271,-0.002 0.058,-0.002 0,0 0.15483,0 0.29779,0.0661 z m 0,0"
       style="fill:#000000;fill-opacity:1;fill-rule:nonzero;stroke:none;stroke-width:0.12158532" />
    <path
       id="path1049"
       d="m 137.88908,138.31331 c 0,0 0,0.3163 -0.16149,0.6407 0,0 -0.14437,0.28923 -0.3201,0.38232 0,0 -0.0641,0.0332 -0.12396,0.0332 0,0 -0.16956,0 -0.2275,-0.23178 0,0 -0.0208,-0.0864 -0.0208,-0.19188 0,0 0,-0.32486 0.16575,-0.65114 0,0 0.14438,-0.28307 0.32011,-0.37426 0,0 0.0622,-0.0309 0.12016,-0.0309 0,0 0.17953,0 0.2313,0.26265 0,0 0.0165,0.0784 0.0165,0.161 m -0.63452,0.28306 h 0.43172 c 0,0 0.0665,-0.27261 0.0665,-0.4113 0,0 0,-0.23367 -0.0974,-0.24791 0,0 -0.009,-0.002 -0.0167,-0.002 0,0 -0.10545,0 -0.22512,0.21705 0,0 -0.0788,0.13821 -0.15721,0.43362 0,0 0,0.006 -10e-4,0.011 m 0.41319,0.066 h -0.42982 c 0,0 -0.066,0.25029 -0.066,0.40941 0,0 0,0.24791 0.11158,0.25219 0,0 0.11538,0 0.23937,-0.24174 0,0 0.0807,-0.15294 0.14486,-0.41986 z m 0,0"
       style="fill:#000000;fill-opacity:1;fill-rule:nonzero;stroke:none;stroke-width:0.12158532" />
    <path
       id="path1051"
       d="m 126.74977,122.5984 h 4.985 v 3.89074 h -4.985 z m 0,0"
       style="fill:#ffffff;fill-opacity:1;fill-rule:nonzero;stroke:none;stroke-width:0.12158532" />
    <path
       id="path1053"
       d="m 127.9566,123.51552 v 1.93491 c 0,0 0,0.0618 -0.0418,0.066 0,0 -0.0413,0 -0.0413,-0.0745 v -1.91782 c 0,0 0,-0.0727 0.0413,-0.0746 0,0 0.0418,0 0.0418,0.066 m 0.40275,0.009 v 1.91782 c 0,0 0,0.0727 -0.0413,0.0745 0,0 -0.0413,0 -0.0413,-0.066 v -1.93491 c 0,0 0,-0.0617 0.0413,-0.066 0,0 0.0413,0 0.0413,0.0745 z m 0,0"
       style="fill:#000000;fill-opacity:1;fill-rule:nonzero;stroke:none;stroke-width:0.12158532" />
    <path
       id="path1055"
       d="m 129.74428,123.74111 h -0.66159 c 0,0 -0.0636,0 -0.0703,-0.0289 0,0 -0.002,-0.006 -0.002,-0.0124 0,0 0.0124,-0.0413 0.0722,-0.0413 h 0.69675 c 0,0 -0.0413,-0.0537 -0.0494,-0.11967 0,0 0,-0.0332 0.0289,-0.0413 0,0 0.006,-0.002 0.0124,-0.002 0,0 0.0309,0 0.0413,0.0456 0,0 0.0266,0.0784 0.0846,0.11783 0,0 0.0289,0.0209 0.0289,0.0413 0,0 0,0.0228 -0.0352,0.0433 0,0 -0.0931,0.0456 -0.16338,0.1344 0,0 -0.0228,0.0271 -0.039,0.0271 0,0 -0.0289,0 -0.0395,-0.0289 0,0 -0.002,-0.006 -0.002,-0.0124 0,0 0,-0.0332 0.0969,-0.122 z m 0,0"
       style="fill:#000000;fill-opacity:1;fill-rule:nonzero;stroke:none;stroke-width:0.12158532" />
    <path
       id="path1057"
       d="m 129.63791,124.40224 v 0.59747 h -0.15484 v -0.0746 c 0,0 -0.12586,0.0974 -0.34291,0.0974 0,0 -0.12016,0 -0.17811,-0.0836 0,0 -0.0575,-0.0841 -0.0575,-0.17287 0,0 0,-0.13014 0.16195,-0.19948 0,0 0.16243,-0.0693 0.41035,-0.0732 v -0.0888 c 0,0 0,-0.10974 -0.0517,-0.17288 0,0 -0.0517,-0.0632 -0.12823,-0.0632 0,0 -0.16718,0 -0.31204,0.10349 l -0.0124,-0.13631 c 0,0 0.1553,-0.0888 0.32439,-0.0888 0,0 0.14485,0 0.24316,0.10017 0,0 0.0978,0.10018 0.0978,0.25505 m -0.16101,0.32485 v -0.12823 c 0,0 -0.42365,0.0205 -0.42365,0.1629 0,0 0,0.0622 0.057,0.0983 0,0 0.0565,0.0361 0.13536,0.0361 0,0 0.0969,0 0.161,-0.039 0,0 0.0703,-0.0395 0.0703,-0.13014 z m 0,0"
       style="fill:#000000;fill-opacity:1;fill-rule:nonzero;stroke:none;stroke-width:0.12158532" />
    <path
       id="path1059"
       d="m 130.16223,123.51552 v 1.93491 c 0,0 0,0.0618 -0.0413,0.066 0,0 -0.0413,0 -0.0413,-0.0745 v -1.91782 c 0,0 0,-0.0727 0.0413,-0.0746 0,0 0.0413,0 0.0413,0.066 m 0.40323,0.009 v 1.91782 c 0,0 0,0.0727 -0.0413,0.0745 0,0 -0.0418,0 -0.0418,-0.066 v -1.93491 c 0,0 0,-0.0617 0.0418,-0.066 0,0 0.0413,0 0.0413,0.0745 z m 0,0"
       style="fill:#000000;fill-opacity:1;fill-rule:nonzero;stroke:none;stroke-width:0.12158532" />
    <path
       id="path1196"
       d="M 109.69032,28.856818 V 95.158414"
       style="fill:none;stroke:#cacaff;stroke-width:0.13755518;stroke-linecap:butt;stroke-linejoin:miter;stroke-miterlimit:10;stroke-opacity:1" />
    <path
       id="path1198"
       d="m 109.69032,28.719268 -0.41266,0.41266"
       style="fill:none;stroke:#cacaff;stroke-width:0.13755518;stroke-linecap:butt;stroke-linejoin:miter;stroke-miterlimit:10;stroke-opacity:1" />
    <path
       id="path1200"
       d="m 109.69032,28.719268 0.41267,0.41266"
       style="fill:none;stroke:#cacaff;stroke-width:0.13755518;stroke-linecap:butt;stroke-linejoin:miter;stroke-miterlimit:10;stroke-opacity:1" />
    <path
       id="path1202"
       d="m -102.87607,-144.98804 h 717.55"
       style="fill:none;stroke:#cacaff;stroke-width:0.35277778;stroke-linecap:butt;stroke-linejoin:miter;stroke-miterlimit:10;stroke-opacity:1" />
    <path
       id="path1310"
       d="m 109.27766,69.710708 h 0.41266"
       style="fill:none;stroke:#cacaff;stroke-width:0.13755518;stroke-linecap:butt;stroke-linejoin:miter;stroke-miterlimit:10;stroke-opacity:1" />
    <path
       id="path1312"
       d="m 109.27766,63.933388 h 0.41266"
       style="fill:none;stroke:#cacaff;stroke-width:0.13755518;stroke-linecap:butt;stroke-linejoin:miter;stroke-miterlimit:10;stroke-opacity:1" />
    <path
       id="path1314"
       d="m 109.27766,58.293628 h 0.41266"
       style="fill:none;stroke:#cacaff;stroke-width:0.13755518;stroke-linecap:butt;stroke-linejoin:miter;stroke-miterlimit:10;stroke-opacity:1" />
    <path
       id="path1316"
       d="m 109.27766,52.516308 h 0.41266"
       style="fill:none;stroke:#cacaff;stroke-width:0.13755518;stroke-linecap:butt;stroke-linejoin:miter;stroke-miterlimit:10;stroke-opacity:1" />
    <path
       id="path1318"
       d="m 109.27766,46.738988 h 0.41266"
       style="fill:none;stroke:#cacaff;stroke-width:0.13755518;stroke-linecap:butt;stroke-linejoin:miter;stroke-miterlimit:10;stroke-opacity:1" />
    <path
       id="path1320"
       d="m 109.27766,40.961678 h 0.41266"
       style="fill:none;stroke:#cacaff;stroke-width:0.13755518;stroke-linecap:butt;stroke-linejoin:miter;stroke-miterlimit:10;stroke-opacity:1" />
    <path
       id="path1322"
       d="m 109.27766,35.184358 h 0.41266"
       style="fill:none;stroke:#cacaff;stroke-width:0.13755518;stroke-linecap:butt;stroke-linejoin:miter;stroke-miterlimit:10;stroke-opacity:1" />
    <path
       id="path1324"
       d="m 136.65973,65.061768 c 0,12.20534 -10.0469,22.0991 -22.44083,22.0991 -12.3934,0 -22.440841,-9.89376 -22.440841,-22.0991 0,-12.2048 10.047441,-22.09909 22.440841,-22.09909 12.39393,0 22.44083,9.89429 22.44083,22.09909 z m 0,0"
       style="fill:none;stroke:#000000;stroke-width:0.13755518;stroke-linecap:round;stroke-linejoin:round;stroke-miterlimit:10;stroke-opacity:1" />
    <path
       id="path1326"
       d="m 124.43076,45.383858 -1.32773,2.55874 2.5985,1.30731 1.32773,-2.55874 -2.5985,-1.30731"
       style="fill:#000000;fill-opacity:0.09803922;fill-rule:evenodd;stroke:#000000;stroke-width:0.41266555;stroke-linecap:round;stroke-linejoin:round;stroke-miterlimit:10;stroke-opacity:1" />
    <path
       transform="matrix(0.13755518,0,0,0.13755518,61.546013,28.581708)"
       id="path1328"
       d="M 204.51953,-5 1186.0977,489"
       style="fill:none;stroke:#000000;stroke-width:1;stroke-linecap:round;stroke-linejoin:round;stroke-miterlimit:10;stroke-opacity:1"
       clip-path="url(#clipPath1503)" />
    <path
       id="path1330"
       d="m 114.2189,65.061768 9.26187,-17.84671"
       style="fill:none;stroke:#000000;stroke-width:0.13755518;stroke-linecap:round;stroke-linejoin:round;stroke-miterlimit:10;stroke-opacity:1" />
    <path
       id="path1332"
       d="m 124.43076,45.383858 -0.49219,2.0687 -0.9156,-0.475 z m 0,0"
       style="fill:#000000;fill-opacity:1;fill-rule:evenodd;stroke:none;stroke-width:0.13755518" />
    <path
       id="path1334"
       d="m 114.63156,65.061768 c 0,0.22837 -0.18484,0.41267 -0.41266,0.41267 -0.22783,0 -0.41267,-0.1843 -0.41267,-0.41267 0,-0.22782 0.18484,-0.41267 0.41267,-0.41267 0.22782,0 0.41266,0.18485 0.41266,0.41267 z m 0,0"
       style="fill:#000000;fill-opacity:1;fill-rule:nonzero;stroke:#000000;stroke-width:0.13755518;stroke-linecap:round;stroke-linejoin:round;stroke-miterlimit:10;stroke-opacity:1" />
    <path
       id="path1336"
       d="m 116.00711,66.950468 -0.14776,0.59643 c 0,0 -0.0113,0.0419 -0.0231,0.0446 l -0.003,0.002 h -0.0161 c 0,0 -0.0349,0 -0.0349,-0.0231 l 0.007,-0.11498 v -0.004 c 0,0 0,-0.29016 -0.18269,-0.40031 l -0.002,-0.002 c 0,0 -0.0817,-0.0489 -0.19182,-0.0489 0,0 -0.24771,0 -0.47016,0.18485 0,0 -0.0559,0.044 -0.10048,0.0978 0,0 -0.22192,0.25953 -0.2735,0.65983 0,0 -0.009,0.0725 -0.009,0.12627 0,0 0,0.32724 0.24771,0.44169 0,0 0.0956,0.0446 0.21063,0.0446 0,0 0.21976,0 0.42986,-0.17087 0,0 0.16388,-0.1381 0.23642,-0.36915 0,0 0.005,-0.0236 0.0306,-0.0236 0,0 0.0279,0 0.0279,0.0236 0,0 0,0.0419 -0.0537,0.14938 0,0 -0.0725,0.14722 -0.20364,0.26168 0,0 -0.23159,0.20149 -0.50509,0.20149 0,0 -0.29929,0 -0.47929,-0.20579 0,0 -0.15422,-0.17571 -0.15422,-0.43524 0,0 0,-0.34818 0.2547,-0.65231 0,0 0.23642,-0.28317 0.55881,-0.37398 0,0 0.11929,-0.0328 0.23374,-0.0328 0,0 0.25523,0 0.38849,0.20795 l 0.16334,-0.18001 c 0,0 0.0285,-0.028 0.0355,-0.028 0,0 0.0258,0 0.0258,0.0231 z m 0,0"
       style="fill:#000000;fill-opacity:1;fill-rule:nonzero;stroke:none;stroke-width:0.13755518" />
    <path
       id="path1338"
       d="m 118.32406,67.811258 h -1.39597 c 0,0 -0.0747,0 -0.0795,-0.0467 0,0 0,-0.0468 0.0774,-0.0468 h 1.40081 c 0,0 0.0747,0 0.0768,0.0468 0,0 0,0.0467 -0.0795,0.0467 m 0.003,0.4535 h -1.40082 c 0,0 -0.0747,0 -0.0774,-0.0467 0,0 0,-0.0467 0.0795,-0.0467 h 1.39597 c 0,0 0.0752,0 0.0795,0.0467 0,0 0,0.0467 -0.0768,0.0467 z m 0,0"
       style="fill:#000000;fill-opacity:1;fill-rule:nonzero;stroke:none;stroke-width:0.13755518" />
    <path
       id="path1340"
       d="m 119.96021,69.136838 c 0,0 0,0.0236 -0.0236,0.0236 0,0 -0.0279,0 -0.12358,-0.0956 0,0 -0.14508,-0.14508 -0.24072,-0.34389 0,0 -0.15475,-0.3181 -0.15475,-0.72969 0,0 0,-0.39493 0.14723,-0.71303 0,0 0.12197,-0.25952 0.30896,-0.41642 0,0 0.0489,-0.0398 0.0629,-0.0398 0,0 0.0236,0 0.0236,0.0236 0,0 0,0.0113 -0.0306,0.0392 0,0 -0.37613,0.38365 -0.37613,1.10635 0,0 0,0.72001 0.36699,1.09453 0,0 0.0398,0.0398 0.0398,0.0511 z m 0,0"
       style="fill:#000000;fill-opacity:1;fill-rule:nonzero;stroke:none;stroke-width:0.13755518" />
    <path
       id="path1342"
       d="m 120.76674,66.978948 -0.18269,0.74365 c 0,0 0.14508,-0.18054 0.34657,-0.18054 0,0 0.20795,0 0.25684,0.16174 v 0.002 c 0,0 0.0118,0.0398 0.0118,0.0865 0,0 0,0.1311 -0.14239,0.51475 0,0 -0.0425,0.10263 -0.0425,0.16604 0,0 0,0.0768 0.0564,0.0768 0,0 0.14508,0 0.2289,-0.25738 l 0.01,-0.0328 c 0,0 0.0113,-0.0371 0.0231,-0.0398 v -0.002 h 0.0118 c 0,0 0.0279,0 0.0279,0.0236 0,0 0,0.0398 -0.0489,0.14723 0,0 -0.10048,0.21278 -0.25737,0.21278 0,0 -0.11929,0 -0.17087,-0.10048 0,0 -0.0209,-0.0425 -0.0209,-0.0913 0,0 0,-0.0419 0.0306,-0.12843 0,0 0.14507,-0.36967 0.14507,-0.52388 0,0 0,-0.16389 -0.12627,-0.16389 0,0 -0.1123,0 -0.2246,0.0817 0,0 -0.0865,0.0682 -0.15206,0.2015 l -0.007,0.014 c 0,0 -0.01,0.0559 -0.0258,0.10532 0,0 -0.0118,0.0537 -0.0398,0.15635 l -0.0516,0.21064 -0.0446,0.17785 c 0,0 -0.0161,0.0489 -0.072,0.0586 0,0 -0.007,0.002 -0.0145,0.002 0,0 -0.0559,0 -0.065,-0.0494 0,0 -0.003,-0.009 -0.003,-0.0161 0,0 0,-0.0188 0.01,-0.0516 l 0.33905,-1.34654 0.007,-0.0473 c 0,0 0,-0.0253 -0.0328,-0.0322 0,0 -0.0279,-0.008 -0.0844,-0.008 0,0 -0.0516,0 -0.0559,-0.028 0,0 0,-0.0398 0.0441,-0.0468 l 0.28532,-0.0231 c 0,0 0.0306,0 0.0306,0.0258 z m 0,0"
       style="fill:#000000;fill-opacity:1;fill-rule:nonzero;stroke:none;stroke-width:0.13755518" />
    <path
       id="path1344"
       d="m 121.91769,68.573728 c 0,0 0,0.22675 -0.14723,0.39708 0,0 -0.0398,0.0473 -0.0656,0.0564 0,0 -0.0236,0 -0.0236,-0.0258 0,0 0,-0.0118 0.0258,-0.0376 0,0 0.14024,-0.14024 0.1569,-0.34335 0,0 0.002,-0.0236 0.002,-0.0468 0,0 0,-0.0354 -0.005,-0.0354 0,0 -0.002,0 -0.0113,0.007 0,0 -0.0328,0.0306 -0.0822,0.0306 0,0 -0.0865,0 -0.11445,-0.0795 0,0 -0.009,-0.021 -0.009,-0.0446 0,0 0,-0.0838 0.0725,-0.11444 0,0 0.0231,-0.009 0.0511,-0.009 0,0 0.10317,0 0.13809,0.13541 0,0 0.0118,0.0489 0.0118,0.11015 z m 0,0"
       style="fill:#000000;fill-opacity:1;fill-rule:nonzero;stroke:none;stroke-width:0.13755518" />
    <path
       id="path1346"
       d="m 123.15354,66.978948 -0.24341,0.98653 c 0,0 0.10048,-0.0398 0.25953,-0.21762 0,0 0.18484,-0.2058 0.3412,-0.2058 0,0 0.1123,0 0.14991,0.0935 0,0 0.009,0.0258 0.009,0.0543 0,0 0,0.0956 -0.0795,0.13326 0,0 -0.0252,0.009 -0.0489,0.009 0,0 -0.0725,0 -0.0865,-0.0629 0,0 -0.002,-0.01 -0.002,-0.0188 0,0 0,-0.0656 0.058,-0.10317 l 0.003,-0.002 c 0,0 0.0301,-0.0188 0.0725,-0.0209 l -0.01,-0.01 c 0,0 -0.0183,-0.014 -0.0489,-0.0183 0,0 -0.005,-0.003 -0.0209,-0.003 0,0 -0.12412,0 -0.30198,0.18968 0,0 -0.009,0.009 -0.0183,0.0209 l -0.0145,0.014 c 0,0 -0.12143,0.12628 -0.20096,0.17302 0,0 0.34604,0.0446 0.34604,0.24556 0,0 0,0.0328 -0.009,0.0725 0,0 -0.0188,0.0747 -0.0188,0.13111 0,0 0,0.10961 0.0747,0.10961 0,0 0.10747,0 0.17302,-0.19397 0,0 0.0167,-0.0398 0.0306,-0.0962 0,0 0.0188,-0.0398 0.0328,-0.0419 0,0 0.0279,0 0.0279,0.0236 0,0 0,0.0371 -0.0446,0.15207 0,0 -0.0183,0.0467 -0.0398,0.0838 0,0 -0.0747,0.12412 -0.1843,0.12412 0,0 -0.12896,0 -0.18753,-0.1123 0,0 -0.0279,-0.0537 -0.0279,-0.11928 0,0 0,-0.0258 0.01,-0.0817 0,0 0.007,-0.0236 0.007,-0.0494 0,0 0,-0.14723 -0.21063,-0.18914 0,0 -0.0306,-0.007 -0.0607,-0.01 0,0 -0.11714,0.48682 -0.13111,0.51207 0,0 -0.0231,0.0446 -0.0795,0.0494 0,0 -0.0559,0 -0.0656,-0.0494 0,0 -0.002,-0.009 -0.002,-0.0161 0,0 0,-0.0188 0.009,-0.0516 l 0.33906,-1.34653 0.007,-0.0473 c 0,0 0,-0.0253 -0.0322,-0.0322 0,0 -0.0285,-0.008 -0.0844,-0.008 0,0 -0.0516,0 -0.0564,-0.028 0,0 0,-0.0398 0.0446,-0.0467 l 0.28532,-0.0231 c 0,0 0.0306,0 0.0306,0.0258 z m 0,0"
       style="fill:#000000;fill-opacity:1;fill-rule:nonzero;stroke:none;stroke-width:0.13755518" />
    <path
       id="path1348"
       d="m 124.44903,67.991268 c 0,0 0,0.39493 -0.14723,0.71303 0,0 -0.12197,0.25953 -0.30896,0.41643 0,0 -0.0489,0.0398 -0.0629,0.0398 0,0 -0.0236,0 -0.0236,-0.0236 0,0 0,-0.0113 0.0306,-0.0398 0,0 0.37666,-0.38311 0.37666,-1.10582 0,0 0,-0.71303 -0.35087,-1.08056 l -0.0118,-0.0113 c 0,0 -0.0446,-0.0425 -0.0446,-0.0537 0,0 0,-0.0236 0.0236,-0.0236 0,0 0.0279,0 0.12359,0.0956 0,0 0.14507,0.14508 0.24125,0.34389 0,0 0.15422,0.3181 0.15422,0.72968 z m 0,0"
       style="fill:#000000;fill-opacity:1;fill-rule:nonzero;stroke:none;stroke-width:0.13755518" />
    <path
       id="path1350"
       d="m 102.85609,46.250028 c 0,0.22782 -0.18484,0.41266 -0.41267,0.41266 -0.22782,0 -0.41266,-0.18484 -0.41266,-0.41266 0,-0.22783 0.18484,-0.41267 0.41266,-0.41267 0.22783,0 0.41267,0.18484 0.41267,0.41267 z m 0,0"
       style="fill:#000000;fill-opacity:1;fill-rule:nonzero;stroke:#000000;stroke-width:0.13755518;stroke-linecap:round;stroke-linejoin:round;stroke-miterlimit:10;stroke-opacity:1" />
    <path
       id="path1352"
       d="m 102.00819,49.679768 -0.14508,0.58461 -0.007,0.0398 c 0,0 0,0.0398 0.10747,0.0419 h 0.0446 c 0,0 0.0607,0 0.0656,0.0258 0,0 0,0.0468 -0.0473,0.0468 l -0.14938,-0.005 h -0.002 l -0.14508,-0.002 h -0.005 l -0.29445,0.007 h -0.003 c 0,0 -0.0349,0 -0.0349,-0.028 0,0 0,-0.0398 0.0376,-0.0446 h 0.0279 c 0,0 0.15206,0 0.18215,-0.0328 0,0 0.0145,-0.0161 0.0285,-0.0656 0,0 0,-0.002 0.002,-0.0113 l 0.31326,-1.25573 c 0,0 0.01,-0.0376 0.01,-0.0446 0,0 0,-0.028 -0.0376,-0.0349 h -0.002 c 0,0 -0.005,-0.003 -0.0118,-0.003 0,0 -0.0564,-0.004 -0.10048,-0.004 0,0 -0.0607,0 -0.0656,-0.0188 0,0 -0.003,-0.005 -0.003,-0.01 0,0 0,-0.0398 0.0398,-0.0441 h 0.78826 c 0,0 0.28317,0 0.4046,0.17302 0,0 0.0559,0.0817 0.0559,0.18 0,0 0,0.18914 -0.19397,0.34389 0,0 -0.2058,0.1612 -0.46318,0.1612 h -0.39708 m 0.16818,-0.69691 -0.15904,0.63619 h 0.32991 c 0,0 0.22192,0 0.36001,-0.12412 0,0 0.0956,-0.0887 0.13111,-0.29715 v -0.002 c 0,0 0.007,-0.0446 0.007,-0.0774 0,0 0,-0.22406 -0.3181,-0.22406 h -0.2246 c 0,0 -0.0844,0 -0.10263,0.0231 v 0.002 h -0.003 v 0.003 c 0,0 -0.009,0.014 -0.021,0.0607 z m 0,0"
       style="fill:#000000;fill-opacity:1;fill-rule:nonzero;stroke:none;stroke-width:0.13755518" />
    <path
       id="path1354"
       d="m 105.38151,49.653978 h -1.39597 c 0,0 -0.0747,0 -0.0795,-0.0468 0,0 0,-0.0467 0.0774,-0.0467 h 1.40081 c 0,0 0.0747,0 0.0768,0.0467 0,0 0,0.0468 -0.0795,0.0468 m 0.003,0.4535 h -1.40081 c 0,0 -0.0752,0 -0.0774,-0.0467 0,0 0,-0.0468 0.0795,-0.0468 h 1.39597 c 0,0 0.0747,0 0.0795,0.0468 0,0 0,0.0467 -0.0768,0.0467 z m 0,0"
       style="fill:#000000;fill-opacity:1;fill-rule:nonzero;stroke:none;stroke-width:0.13755518" />
    <path
       id="path1356"
       d="m 107.01767,50.980098 c 0,0 0,0.0231 -0.0236,0.0231 0,0 -0.0279,0 -0.12359,-0.0956 0,0 -0.14507,-0.14508 -0.24126,-0.34389 0,0 -0.15421,-0.3181 -0.15421,-0.72969 0,0 0,-0.39493 0.14723,-0.71303 0,0 0.12197,-0.25953 0.30896,-0.41643 0,0 0.0489,-0.0398 0.0629,-0.0398 0,0 0.0236,0 0.0236,0.0236 0,0 0,0.0113 -0.0306,0.0398 0,0 -0.37666,0.3831 -0.37666,1.10581 0,0 0,0.72001 0.36753,1.09453 0,0 0.0398,0.0398 0.0398,0.0516 z m 0,0"
       style="fill:#000000;fill-opacity:1;fill-rule:nonzero;stroke:none;stroke-width:0.13755518" />
    <path
       id="path1358"
       d="m 107.93381,49.712548 -0.0795,0.32024 c 0,0 -0.0398,0.15905 -0.0398,0.2058 0,0 0,0.12144 0.0865,0.14723 0,0 0.0188,0.007 0.0424,0.007 0,0 0.1166,0 0.21278,-0.1166 0,0 0.0629,-0.0752 0.0978,-0.18968 0,0 0.007,-0.0258 0.0306,-0.0258 0,0 0.0279,0 0.0279,0.0236 0,0 0,0.058 -0.0725,0.16818 0,0 -0.12627,0.19183 -0.30144,0.19183 0,0 -0.15905,0 -0.23159,-0.13326 0,0 -0.014,-0.0209 -0.0209,-0.0446 0,0 -0.0564,0.1123 -0.15421,0.1569 0,0 -0.0446,0.021 -0.0913,0.021 0,0 -0.14024,0 -0.19666,-0.0817 0,0 -0.0231,-0.0307 -0.0231,-0.0725 0,0 0,-0.0865 0.0747,-0.12197 0,0 0.0258,-0.014 0.0537,-0.014 0,0 0.0704,0 0.0844,0.0586 0,0 0.002,0.0118 0.002,0.0236 0,0 0,0.0795 -0.0795,0.1166 0,0 -0.014,0.007 -0.0301,0.01 0,0 0.0489,0.0301 0.1166,0.0301 0,0 0.12412,0 0.19666,-0.16603 0,0 0.014,-0.0349 0.0258,-0.0768 0,0 0.12627,-0.47714 0.12627,-0.55667 0,0 -0.014,-0.14508 -0.12627,-0.1569 0,0 -0.12197,0 -0.22245,0.12413 v 0.002 c 0,0 0,0.003 -0.002,0.003 0,0 -0.0349,0.0468 -0.0634,0.10747 0,0 -0.0113,0.028 -0.0209,0.0559 l -0.004,0.014 c 0,0 -0.005,0.0258 -0.0306,0.0258 0,0 -0.0279,0 -0.0279,-0.0231 0,0 0,-0.0586 0.0747,-0.16871 0,0 0.12627,-0.19183 0.30144,-0.19183 0,0 0.18054,0 0.25254,0.17786 0,0 0.0752,-0.14508 0.19881,-0.17302 0,0 0.0236,-0.005 0.0467,-0.005 0,0 0.13809,0 0.19451,0.0774 0,0 0.0231,0.0328 0.0231,0.0774 0,0 0,0.0957 -0.0865,0.12842 0,0 -0.021,0.007 -0.0398,0.007 0,0 -0.0725,0 -0.0865,-0.0629 0,0 -0.002,-0.01 -0.002,-0.0188 0,0 0,-0.0704 0.0677,-0.11015 0,0 0.021,-0.0118 0.0446,-0.0161 0,0 -0.0494,-0.0306 -0.11714,-0.0306 0,0 -0.15904,0 -0.2246,0.24771 0,0 -0.004,0.0145 -0.007,0.0285 z m 0,0"
       style="fill:#000000;fill-opacity:1;fill-rule:nonzero;stroke:none;stroke-width:0.13755518" />
    <path
       id="path1360"
       d="m 108.96386,50.416438 c 0,0 0,0.22676 -0.14723,0.39763 0,0 -0.0398,0.0467 -0.0656,0.0559 0,0 -0.0231,0 -0.0231,-0.0258 0,0 0,-0.0118 0.0258,-0.0376 0,0 0.14025,-0.14024 0.15636,-0.34335 0,0 0.003,-0.0236 0.003,-0.0468 0,0 0,-0.0355 -0.005,-0.0355 0,0 -0.002,0 -0.0118,0.007 0,0 -0.0328,0.0307 -0.0817,0.0307 0,0 -0.0865,0 -0.11445,-0.0795 0,0 -0.01,-0.0209 -0.01,-0.0446 0,0 0,-0.0838 0.0725,-0.11445 0,0 0.0236,-0.009 0.0516,-0.009 0,0 0.10263,0 0.1381,0.13541 0,0 0.0113,0.0494 0.0113,0.11015 z m 0,0"
       style="fill:#000000;fill-opacity:1;fill-rule:nonzero;stroke:none;stroke-width:0.13755518" />
    <path
       id="path1362"
       d="m 110.66503,49.527708 -0.2246,0.89303 c 0,0 -0.0559,0.22944 -0.24986,0.37183 0,0 -0.14293,0.10532 -0.29714,0.10532 0,0 -0.1569,0 -0.22191,-0.10747 0,0 -0.0258,-0.0446 -0.0258,-0.0956 0,0 0,-0.11929 0.0956,-0.14777 0,0 0.0188,-0.004 0.0349,-0.004 0,0 0.0752,0 0.0844,0.0656 0,0 0.003,0.007 0.003,0.0161 0,0 0,0.0537 -0.0473,0.0957 0,0 -0.0322,0.0285 -0.10048,0.0285 0,0 0.0425,0.0978 0.17785,0.0978 0,0 0.14508,0 0.25738,-0.14722 0,0 0.0913,-0.12144 0.14508,-0.32939 0,0 0.002,-0.01 0.007,-0.0306 0,0 -0.10532,0.10531 -0.23643,0.10531 0,0 -0.18698,0 -0.25469,-0.13809 0,0 -0.0306,-0.0607 -0.0306,-0.14024 0,0 0,-0.12842 0.12412,-0.46049 0,0 0.005,-0.014 0.0118,-0.0306 0,0 0.0398,-0.10747 0.0398,-0.16389 0,0 0,-0.0747 -0.0586,-0.0747 0,0 -0.12895,0 -0.21063,0.21279 v 0.003 c 0,0 -0.014,0.0349 -0.0258,0.0747 0,0 -0.0258,0.0398 -0.0371,0.0419 0,0 -0.0285,0 -0.0285,-0.0231 0,0 0,-0.0425 0.0494,-0.14776 0,0 0.10263,-0.21279 0.25953,-0.21279 0,0 0.12359,0 0.17302,0.10532 0,0 0.0188,0.0398 0.0188,0.0865 0,0 0,0.0494 -0.0468,0.16872 0,0 -0.11929,0.30842 -0.11929,0.45834 0,0 0,0.18914 0.14508,0.18914 0,0 0.13541,0 0.23589,-0.14508 0,0 0.0237,-0.0349 0.0279,-0.0537 l 0.10531,-0.42073 c 0,0 0.0167,-0.0774 0.0467,-0.18699 0,0 0.0236,-0.10048 0.0328,-0.12627 0,0 0.0306,-0.0494 0.0817,-0.0494 0,0 0.0586,0.0118 0.0682,0.0634 0,0 0,0.0209 -0.01,0.0537 z m 0,0"
       style="fill:#000000;fill-opacity:1;fill-rule:nonzero;stroke:none;stroke-width:0.13755518" />
    <path
       id="path1364"
       d="m 111.43502,49.833988 c 0,0 0,0.39546 -0.14723,0.71302 0,0 -0.12197,0.25953 -0.30896,0.41643 0,0 -0.0489,0.0398 -0.0629,0.0398 0,0 -0.0237,0 -0.0237,-0.0231 0,0 0,-0.0118 0.0306,-0.0398 0,0 0.37612,-0.38365 0.37612,-1.10635 0,0 0,-0.71303 -0.35033,-1.08056 l -0.0118,-0.0113 c 0,0 -0.0446,-0.0425 -0.0446,-0.0537 0,0 0,-0.0236 0.0237,-0.0236 0,0 0.0279,0 0.12358,0.0956 0,0 0.14508,0.14508 0.24126,0.34389 0,0 0.15421,0.3181 0.15421,0.72969 z m 0,0"
       style="fill:#000000;fill-opacity:1;fill-rule:nonzero;stroke:none;stroke-width:0.13755518" />
    <path
       id="path1366"
       d="m 124.84342,45.383858 c 0,0.22782 -0.1843,0.41267 -0.41266,0.41267 -0.22783,0 -0.41267,-0.18485 -0.41267,-0.41267 0,-0.22782 0.18484,-0.41267 0.41267,-0.41267 0.22836,0 0.41266,0.18485 0.41266,0.41267 z m 0,0"
       style="fill:#000000;fill-opacity:1;fill-rule:nonzero;stroke:#000000;stroke-width:0.13755518;stroke-linecap:round;stroke-linejoin:round;stroke-miterlimit:10;stroke-opacity:1" />
    <path
       id="path1368"
       d="m 126.63056,43.214678 -0.14507,0.58461 -0.007,0.0398 c 0,0 0,0.0398 0.10746,0.0419 h 0.0446 c 0,0 0.0607,0 0.0656,0.0258 0,0 0,0.0468 -0.0473,0.0468 l -0.14937,-0.005 h -0.002 l -0.14508,-0.002 h -0.005 l -0.29445,0.007 h -0.003 c 0,0 -0.0349,0 -0.0349,-0.028 0,0 0,-0.0398 0.0376,-0.0446 h 0.0279 c 0,0 0.15206,0 0.18215,-0.0328 0,0 0.014,-0.0161 0.0285,-0.0656 0,0 0,-0.002 0.002,-0.0113 l 0.31326,-1.25573 c 0,0 0.01,-0.0376 0.01,-0.0446 0,0 0,-0.028 -0.0376,-0.0349 h -0.002 c 0,0 -0.005,-0.003 -0.0118,-0.003 0,0 -0.0564,-0.005 -0.10048,-0.005 0,0 -0.0607,0 -0.0656,-0.0183 0,0 -0.003,-0.005 -0.003,-0.01 0,0 0,-0.0398 0.0398,-0.0441 h 0.78826 c 0,0 0.28317,0 0.4046,0.17302 0,0 0.0559,0.0817 0.0559,0.18 0,0 0,0.18914 -0.19397,0.34336 0,0 -0.2058,0.16173 -0.46318,0.16173 h -0.39708 m 0.16818,-0.69691 -0.15904,0.63619 h 0.32991 c 0,0 0.22192,0 0.36001,-0.12412 0,0 0.0956,-0.0887 0.13111,-0.29714 v -0.002 c 0,0 0.007,-0.0446 0.007,-0.0774 0,0 0,-0.2246 -0.3181,-0.2246 h -0.2246 c 0,0 -0.0844,0 -0.10263,0.0236 v 0.002 h -0.003 v 0.003 c 0,0 -0.009,0.014 -0.0209,0.0607 z m 0,0"
       style="fill:#000000;fill-opacity:1;fill-rule:nonzero;stroke:none;stroke-width:0.13755518" />
    <path
       id="path1370"
       d="m 128.17591,43.780478 c 0,0 0,0.23911 -0.0602,0.36968 0,0 -0.0967,0.18377 -0.28478,0.19021 0,0 -0.14938,0 -0.23911,-0.1182 0,0 -0.0183,-0.021 -0.0312,-0.0473 0,0 -0.0736,-0.13595 -0.0736,-0.3944 0,0 0,-0.24072 0.0607,-0.37182 0,0 0.0817,-0.18324 0.2649,-0.19452 h 0.0199 c 0,0 0.14562,0 0.23696,0.11606 v 0.002 c 0,0 0.0231,0.0296 0.0414,0.0656 0,0 0.065,0.13916 0.065,0.38311 m -0.34496,0.52389 c 0,0 0.10317,0 0.15851,-0.0999 0,0 0.0231,-0.0441 0.0328,-0.10478 0,0 0.0183,-0.10478 0.0183,-0.33905 0,0 0,-0.22729 -0.0167,-0.31917 0,0 -0.0296,-0.15529 -0.15045,-0.18645 0,0 -0.0215,-0.005 -0.0425,-0.005 0,0 -0.11499,0 -0.16711,0.11445 0,0 -0.0183,0.0392 -0.0279,0.0951 0,0 -0.0129,0.0881 -0.0129,0.3009 0,0 0,0.24717 0.0177,0.3455 0,0 0.0296,0.15744 0.144,0.19183 0,0 0.0231,0.006 0.0462,0.006 z m 0,0"
       style="fill:#000000;fill-opacity:1;fill-rule:nonzero;stroke:none;stroke-width:0.13755518" />
    <path
       id="path1372"
       d="m 130.49769,43.188888 h -1.39597 c 0,0 -0.0747,0 -0.0795,-0.0467 0,0 0,-0.0468 0.0768,-0.0468 h 1.40081 c 0,0 0.0752,0 0.0774,0.0468 0,0 0,0.0467 -0.0795,0.0467 m 0.002,0.4535 h -1.40081 c 0,0 -0.0747,0 -0.0768,-0.0468 0,0 0,-0.0468 0.0795,-0.0468 h 1.39597 c 0,0 0.0747,0 0.0795,0.0468 0,0 0,0.0468 -0.0774,0.0468 z m 0,0"
       style="fill:#000000;fill-opacity:1;fill-rule:nonzero;stroke:none;stroke-width:0.13755518" />
    <path
       id="path1374"
       d="m 132.13331,44.514468 c 0,0 0,0.0236 -0.0231,0.0236 0,0 -0.0279,0 -0.12412,-0.0956 0,0 -0.14508,-0.14507 -0.24072,-0.34388 0,0 -0.15422,-0.3181 -0.15422,-0.72969 0,0 0,-0.39494 0.14723,-0.71303 0,0 0.12144,-0.25953 0.30843,-0.41643 0,0 0.0494,-0.0398 0.0634,-0.0398 0,0 0.0231,0 0.0231,0.0236 0,0 0,0.0113 -0.0301,0.0398 0,0 -0.37667,0.38312 -0.37667,1.10582 0,0 0,0.72001 0.36699,1.09453 0,0 0.0398,0.0398 0.0398,0.0511 z m 0,0"
       style="fill:#000000;fill-opacity:1;fill-rule:nonzero;stroke:none;stroke-width:0.13755518" />
    <path
       id="path1376"
       d="m 133.04999,43.247458 -0.0795,0.32024 c 0,0 -0.0398,0.15905 -0.0398,0.2058 0,0 0,0.12143 0.0865,0.14723 0,0 0.0188,0.007 0.0419,0.007 0,0 0.11713,0 0.21278,-0.11661 0,0 0.0634,-0.0752 0.0983,-0.18967 0,0 0.007,-0.0258 0.0306,-0.0258 0,0 0.0279,0 0.0279,0.0236 0,0 0,0.058 -0.0725,0.16818 0,0 -0.12627,0.19183 -0.30144,0.19183 0,0 -0.15905,0 -0.23159,-0.13326 0,0 -0.014,-0.021 -0.021,-0.0446 0,0 -0.0564,0.1123 -0.15475,0.1569 0,0 -0.0441,0.0209 -0.0908,0.0209 0,0 -0.14024,0 -0.19666,-0.0817 0,0 -0.0231,-0.0307 -0.0231,-0.0725 0,0 0,-0.0865 0.0747,-0.12197 0,0 0.0258,-0.014 0.0537,-0.014 0,0 0.0704,0 0.0844,0.0586 0,0 0.002,0.0118 0.002,0.0236 0,0 0,0.0795 -0.0795,0.11659 0,0 -0.014,0.007 -0.0306,0.01 0,0 0.0494,0.0301 0.11714,0.0301 0,0 0.12412,0 0.19666,-0.16604 0,0 0.014,-0.0349 0.0253,-0.0768 0,0 0.12681,-0.47714 0.12681,-0.55667 0,0 -0.0145,-0.14508 -0.12681,-0.1569 0,0 -0.12144,0 -0.22192,0.12412 v 0.002 c 0,0 0,0.003 -0.002,0.003 0,0 -0.0355,0.0467 -0.0634,0.10746 0,0 -0.0118,0.028 -0.021,0.0559 l -0.005,0.014 c 0,0 -0.004,0.0258 -0.0301,0.0258 0,0 -0.0279,0 -0.0279,-0.0231 0,0 0,-0.0586 0.0747,-0.16873 0,0 0.12627,-0.19182 0.30144,-0.19182 0,0 0.18001,0 0.25254,0.17785 0,0 0.0747,-0.14507 0.19882,-0.17301 0,0 0.0236,-0.005 0.0468,-0.005 0,0 0.13809,0 0.19397,0.0774 0,0 0.0236,0.0328 0.0236,0.0774 0,0 0,0.0956 -0.0865,0.12842 0,0 -0.021,0.007 -0.0398,0.007 0,0 -0.0725,0 -0.0865,-0.0629 0,0 -0.002,-0.01 -0.002,-0.0188 0,0 0,-0.0704 0.0677,-0.11015 0,0 0.0209,-0.0118 0.0441,-0.0161 0,0 -0.0489,-0.0306 -0.1166,-0.0306 0,0 -0.15905,0 -0.2246,0.24771 0,0 -0.005,0.0145 -0.007,0.0285 z m 0,0"
       style="fill:#000000;fill-opacity:1;fill-rule:nonzero;stroke:none;stroke-width:0.13755518" />
    <path
       id="path1378"
       d="m 134.35837,43.780478 c 0,0 0,0.23911 -0.0607,0.36968 0,0 -0.0962,0.18377 -0.28478,0.19021 0,0 -0.14884,0 -0.23911,-0.1182 0,0 -0.0177,-0.021 -0.0306,-0.0473 0,0 -0.0742,-0.13595 -0.0742,-0.3944 0,0 0,-0.24072 0.0607,-0.37182 0,0 0.0822,-0.18324 0.26544,-0.19452 h 0.0193 c 0,0 0.14561,0 0.2375,0.11606 v 0.002 c 0,0 0.0231,0.0296 0.0408,0.0656 0,0 0.0656,0.13916 0.0656,0.38311 m -0.3455,0.52389 c 0,0 0.10316,0 0.15905,-0.0999 0,0 0.0226,-0.0441 0.0328,-0.10478 0,0 0.0177,-0.10478 0.0177,-0.33905 0,0 0,-0.22729 -0.0161,-0.31917 0,0 -0.0296,-0.15529 -0.15099,-0.18645 0,0 -0.021,-0.005 -0.0425,-0.005 0,0 -0.11445,0 -0.16711,0.11445 0,0 -0.0177,0.0392 -0.0274,0.0951 0,0 -0.0134,0.0881 -0.0134,0.3009 0,0 0,0.24717 0.0183,0.3455 0,0 0.0296,0.15744 0.144,0.19183 0,0 0.0231,0.006 0.0457,0.006 z m 0,0"
       style="fill:#000000;fill-opacity:1;fill-rule:nonzero;stroke:none;stroke-width:0.13755518" />
    <path
       id="path1380"
       d="m 134.89838,43.951348 c 0,0 0,0.22675 -0.14722,0.39708 0,0 -0.0398,0.0473 -0.0656,0.0564 0,0 -0.0231,0 -0.0231,-0.0258 0,0 0,-0.0118 0.0258,-0.0376 0,0 0.14024,-0.14024 0.15636,-0.34335 0,0 0.003,-0.0236 0.003,-0.0467 0,0 0,-0.0355 -0.005,-0.0355 0,0 -0.002,0 -0.0118,0.007 0,0 -0.0328,0.0306 -0.0817,0.0306 0,0 -0.0865,0 -0.11445,-0.0795 0,0 -0.01,-0.021 -0.01,-0.0446 0,0 0,-0.0838 0.0725,-0.11445 0,0 0.0237,-0.009 0.0516,-0.009 0,0 0.10263,0 0.13809,0.13541 0,0 0.0113,0.0489 0.0113,0.11015 z m 0,0"
       style="fill:#000000;fill-opacity:1;fill-rule:nonzero;stroke:none;stroke-width:0.13755518" />
    <path
       id="path1382"
       d="m 136.59955,43.062618 -0.2246,0.89303 c 0,0 -0.0559,0.22944 -0.24985,0.37183 0,0 -0.14293,0.10532 -0.29714,0.10532 0,0 -0.1569,0 -0.22192,-0.10747 0,0 -0.0258,-0.0446 -0.0258,-0.0956 0,0 0,-0.11929 0.0957,-0.14777 0,0 0.0188,-0.004 0.0349,-0.004 0,0 0.0752,0 0.0844,0.0656 0,0 0.002,0.007 0.002,0.0161 0,0 0,0.0537 -0.0468,0.0957 0,0 -0.0328,0.0285 -0.10048,0.0285 0,0 0.0425,0.0978 0.17786,0.0978 0,0 0.14507,0 0.25738,-0.14722 0,0 0.0908,-0.12144 0.14507,-0.32938 0,0 0.002,-0.01 0.007,-0.0306 0,0 -0.10531,0.10531 -0.23642,0.10531 0,0 -0.18699,0 -0.25469,-0.13809 0,0 -0.0306,-0.0607 -0.0306,-0.14024 0,0 0,-0.12842 0.12412,-0.46049 0,0 0.004,-0.014 0.0118,-0.0306 0,0 0.0398,-0.10746 0.0398,-0.16388 0,0 0,-0.0747 -0.0586,-0.0747 0,0 -0.12896,0 -0.21063,0.21278 v 0.003 c 0,0 -0.014,0.0349 -0.0258,0.0747 0,0 -0.0258,0.0398 -0.0371,0.0419 0,0 -0.0285,0 -0.0285,-0.0231 0,0 0,-0.0425 0.0494,-0.14777 0,0 0.10263,-0.21277 0.25952,-0.21277 0,0 0.12359,0 0.17302,0.10531 0,0 0.0188,0.0398 0.0188,0.0865 0,0 0,0.0494 -0.0468,0.16872 0,0 -0.11928,0.30843 -0.11928,0.45834 0,0 0,0.18914 0.14454,0.18914 0,0 0.13594,0 0.23642,-0.14508 0,0 0.0237,-0.0349 0.0279,-0.0537 l 0.10531,-0.42072 c 0,0 0.0167,-0.0774 0.0468,-0.18699 0,0 0.0236,-0.10048 0.0328,-0.12627 0,0 0.0306,-0.0494 0.0817,-0.0494 0,0 0.0586,0.0118 0.0682,0.0634 0,0 0,0.021 -0.01,0.0537 z m 0,0"
       style="fill:#000000;fill-opacity:1;fill-rule:nonzero;stroke:none;stroke-width:0.13755518" />
    <path
       id="path1384"
       d="m 137.36256,43.780478 c 0,0 0,0.23911 -0.0607,0.36968 0,0 -0.0962,0.18377 -0.28479,0.19021 0,0 -0.14884,0 -0.23857,-0.1182 0,0 -0.0183,-0.021 -0.0312,-0.0473 0,0 -0.0736,-0.13595 -0.0736,-0.3944 0,0 0,-0.24072 0.0602,-0.37182 0,0 0.0822,-0.18324 0.26544,-0.19452 h 0.0193 c 0,0 0.14615,0 0.2375,0.11606 v 0.002 c 0,0 0.0231,0.0296 0.0408,0.0656 0,0 0.0656,0.13916 0.0656,0.38311 m -0.3455,0.52389 c 0,0 0.10317,0 0.15905,-0.0999 0,0 0.0231,-0.0441 0.0328,-0.10478 0,0 0.0177,-0.10478 0.0177,-0.33905 0,0 0,-0.22729 -0.0161,-0.31917 0,0 -0.0296,-0.15529 -0.15045,-0.18645 0,0 -0.0215,-0.005 -0.043,-0.005 0,0 -0.11445,0 -0.16657,0.11445 0,0 -0.0183,0.0392 -0.0279,0.0951 0,0 -0.0134,0.0881 -0.0134,0.3009 0,0 0,0.24717 0.0183,0.3455 0,0 0.0296,0.15744 0.144,0.19183 0,0 0.0231,0.006 0.0457,0.006 z m 0,0"
       style="fill:#000000;fill-opacity:1;fill-rule:nonzero;stroke:none;stroke-width:0.13755518" />
    <path
       id="path1386"
       d="m 138.10406,43.368888 c 0,0 0,0.39494 -0.14722,0.71303 0,0 -0.12198,0.25953 -0.30897,0.41643 0,0 -0.0489,0.0398 -0.0629,0.0398 0,0 -0.0236,0 -0.0236,-0.0236 0,0 0,-0.0113 0.0306,-0.0398 0,0 0.37613,-0.38312 0.37613,-1.10582 0,0 0,-0.71302 -0.35033,-1.08056 l -0.0118,-0.0113 c 0,0 -0.0446,-0.0425 -0.0446,-0.0537 0,0 0,-0.0236 0.0236,-0.0236 0,0 0.0279,0 0.12358,0.0956 0,0 0.14508,0.14507 0.24126,0.34388 0,0 0.15421,0.3181 0.15421,0.72969 z m 0,0"
       style="fill:#000000;fill-opacity:1;fill-rule:nonzero;stroke:none;stroke-width:0.13755518" />
    <path
       id="path1388"
       d="m 108.92302,37.371268 c 0,0.22783 -0.18484,0.41267 -0.41266,0.41267 -0.22783,0 -0.41267,-0.18484 -0.41267,-0.41267 0,-0.22783 0.18484,-0.41266 0.41267,-0.41266 0.22782,0 0.41266,0.18483 0.41266,0.41266 z m 0,0"
       style="fill:#000000;fill-opacity:1;fill-rule:nonzero;stroke:#000000;stroke-width:0.13755518;stroke-linecap:round;stroke-linejoin:round;stroke-miterlimit:10;stroke-opacity:1" />
    <path
       id="path1390"
       d="m 105.62492,39.657048 c 0,0 0.0237,0.18484 0.0865,0.22192 0,0 0.0306,0.0188 0.0795,0.0188 0,0 0.11445,0 0.20365,-0.10048 0,0 0.0467,-0.0516 0.0698,-0.12412 0,0 0.01,-0.0258 0.0285,-0.0258 0,0 0.0253,0 0.0253,0.0236 0,0 0,0.0446 -0.0559,0.16819 0,0 -0.13111,0.28532 -0.33422,0.28532 0,0 -0.19451,0 -0.19451,-0.25738 0,0 0,-0.0349 0.01,-0.18001 0,0 -0.12412,0.0354 -0.22944,0.0354 0,0 -0.2923,0 -0.46048,-0.2058 0,0 -0.1381,-0.16872 -0.1381,-0.41858 0,0 0,-0.35087 0.2504,-0.66413 0,0 0.23158,-0.28317 0.5427,-0.37666 0,0 0.11445,-0.0349 0.22675,-0.0349 0,0 0.2966,0 0.46532,0.21493 0,0 0.13057,0.16818 0.13057,0.41374 0,0 0,0.36055 -0.25684,0.67112 0,0 -0.19666,0.23857 -0.44921,0.33475 m -0.44168,-0.0188 -0.014,-0.0537 v -0.021 c 0,0 0,-0.11499 0.10263,-0.19182 0,0 0.0634,-0.0468 0.13541,-0.0468 0,0 0.16603,0 0.20364,0.23158 0,0 0,0.007 0.002,0.0209 0,0 0.31112,-0.17301 0.44706,-0.61953 0,0 0.065,-0.20848 0.065,-0.3815 0,0 0,-0.30413 -0.18699,-0.4304 l -0.002,-0.002 c 0,0 -0.0935,-0.0629 -0.21493,-0.0629 0,0 -0.22245,0 -0.4304,0.19613 0,0 -0.0704,0.0656 -0.1311,0.14991 0,0 -0.18216,0.26168 -0.2289,0.62168 0,0 -0.01,0.0704 -0.01,0.12413 0,0 0,0.31111 0.20096,0.43469 0,0 0.0285,0.0166 0.0613,0.0307 m 0.14454,0.0258 c 0,0 0.0962,0 0.19666,-0.0425 0,0 0.0236,-0.0301 0.0258,-0.0467 0,0 0,-0.17732 -0.10747,-0.19613 h -0.003 c 0,0 -0.014,-0.002 -0.0328,-0.002 0,0 -0.0956,0 -0.15636,0.0887 0,0 -0.0306,0.0489 -0.0306,0.0983 0,0 0,0.10048 0.10747,0.10048 z m 0,0"
       style="fill:#000000;fill-opacity:1;fill-rule:nonzero;stroke:none;stroke-width:0.13755518" />
  </g>
</svg>
